<svg width="123" height="151" viewBox="0 0 123 151" fill="none" xmlns="http://www.w3.org/2000/svg">
<path d="M72.2008 57.335V18.0492L111.486 57.335M22.2008 7.33496C14.2722 7.33496 7.91504 13.6921 7.91504 21.6207V135.906C7.91504 139.695 9.42014 143.329 12.0992 146.008C14.7783 148.687 18.4119 150.192 22.2008 150.192H107.915C111.704 150.192 115.337 148.687 118.017 146.008C120.696 143.329 122.201 139.695 122.201 135.906V50.1921L79.3436 7.33496H22.2008Z" fill="#8796FF"/>
<path d="M22.2008 7.33496H72.2008L93.6294 26.6207L107.915 39.4778V114.478H22.2008V7.33496Z" fill="white"/>
<path d="M65.0579 50.192V10.9063L104.344 50.192M15.0579 0.192017C7.12936 0.192017 0.772217 6.54916 0.772217 14.4777V128.763C0.772217 132.552 2.27731 136.186 4.9564 138.865C7.6355 141.544 11.2691 143.049 15.0579 143.049H100.772C104.561 143.049 108.195 141.544 110.874 138.865C113.553 136.186 115.058 132.552 115.058 128.763V43.0492L72.2008 0.192017H15.0579Z" fill="#5469FA"/>
</svg>
