<svg width="177" height="151" viewBox="0 0 177 151" fill="none" xmlns="http://www.w3.org/2000/svg">
<path d="M163.613 33.2938H94.6924L72.4675 11.0689C71.2622 9.85528 69.828 8.89299 68.248 8.23781C66.6681 7.58264 64.9738 7.24762 63.2634 7.25218H20.3841C16.9308 7.25218 13.6189 8.62402 11.177 11.0659C8.73511 13.5078 7.36328 16.8197 7.36328 20.273V137.965C7.36974 141.284 8.6916 144.465 11.0392 146.811C13.3868 149.157 16.5687 150.477 19.8877 150.481H164.338C167.597 150.477 170.723 149.18 173.028 146.875C175.333 144.57 176.63 141.445 176.634 138.185V46.3147C176.634 42.8613 175.262 39.5494 172.82 37.1076C170.379 34.6657 167.067 33.2938 163.613 33.2938ZM20.3841 20.273H63.2634L76.2842 33.2938H20.3841V20.273Z" fill="#8796FF"/>
<path d="M7.36328 8.29352H68.3008L75.0716 35.3769H7.36328V8.29352Z" fill="white"/>
<path d="M156.842 26.523H87.9214L65.6965 4.2981C64.4912 3.08447 63.057 2.12218 61.477 1.467C59.8971 0.811825 58.2028 0.476806 56.4924 0.481369H13.6131C10.1598 0.481369 6.84788 1.8532 4.406 4.29508C1.96412 6.73696 0.592285 10.0489 0.592285 13.5022V131.194C0.598744 134.513 1.92061 137.694 4.26823 140.04C6.61584 142.386 9.79775 143.706 13.1167 143.71H157.567C160.827 143.706 163.952 142.409 166.257 140.104C168.562 137.799 169.859 134.674 169.863 131.414V39.5439C169.863 36.0905 168.491 32.7786 166.049 30.3367C163.608 27.8949 160.296 26.523 156.842 26.523ZM13.6131 13.5022H56.4924L69.5132 26.523H13.6131V13.5022Z" fill="#5469FA"/>
</svg>
