<svg width="26" height="28" viewBox="0 0 26 28" fill="none" xmlns="http://www.w3.org/2000/svg">
<path d="M25.872 14.2918C25.872 13.2118 25.7844 12.4237 25.5947 11.6064H13.2625V16.4809H20.5012C20.3553 17.6923 19.5672 19.5166 17.8159 20.7425L17.7913 20.9057L21.6906 23.9263L21.9607 23.9533C24.4417 21.662 25.872 18.2906 25.872 14.2918Z" fill="#4285F4"/>
<path d="M13.2622 27.1348C16.8086 27.1348 19.7859 25.9672 21.9605 23.9532L17.8157 20.7424C16.7065 21.5159 15.2179 22.0559 13.2622 22.0559C9.7888 22.0559 6.84076 19.7646 5.78986 16.5977L5.63582 16.6107L1.58134 19.7485L1.52832 19.8959C3.68827 24.1867 8.12498 27.1348 13.2622 27.1348Z" fill="#34A853"/>
<path d="M5.79001 16.5977C5.51272 15.7804 5.35225 14.9047 5.35225 13.9999C5.35225 13.095 5.51272 12.2193 5.77542 11.4021L5.76808 11.228L1.66279 8.03979L1.52847 8.10368C0.638251 9.88422 0.127441 11.8837 0.127441 13.9999C0.127441 16.1161 0.638251 18.1154 1.52847 19.896L5.79001 16.5977Z" fill="#FBBC05"/>
<path d="M13.2622 5.94381C15.7287 5.94381 17.3924 7.00919 18.3411 7.89951L22.048 4.28008C19.7714 2.1639 16.8086 0.86499 13.2622 0.86499C8.12498 0.86499 3.68827 3.81304 1.52832 8.10375L5.77527 11.4021C6.84076 8.23515 9.78881 5.94381 13.2622 5.94381Z" fill="#EB4335"/>
</svg>
