<svg width="151" height="151" viewBox="0 0 151 151" fill="none" xmlns="http://www.w3.org/2000/svg">
<path d="M23.7712 150.087C19.4291 150.087 15.7133 148.542 12.6238 145.453C9.53432 142.363 7.98695 138.645 7.98169 134.297L7.98169 23.7712C7.98169 19.4291 9.52906 15.7133 12.6238 12.6238C15.7185 9.53432 19.4343 7.98695 23.7712 7.98169L134.297 7.98169C138.64 7.98169 142.358 9.52906 145.453 12.6238C148.547 15.7185 150.092 19.4343 150.087 23.7712V134.297C150.087 138.64 148.542 142.358 145.453 145.453C142.363 148.547 138.645 150.092 134.297 150.087H23.7712ZM31.6659 118.508H126.403L96.7975 79.0343L73.1133 110.613L55.3501 86.929L31.6659 118.508Z" fill="#8796FF"/>
<rect x="15.8766" y="63.2448" width="118.421" height="63.1579" fill="white"/>
<path d="M15.8765 142.192C11.5344 142.192 7.81861 140.647 4.72914 137.558C1.63967 134.469 0.0922993 130.75 0.0870361 126.403L0.0870361 15.8764C0.0870361 11.5343 1.6344 7.81855 4.72914 4.72908C7.82388 1.63961 11.5397 0.0922383 15.8765 0.0869751L126.403 0.0869751C130.745 0.0869751 134.463 1.63434 137.558 4.72908C140.653 7.82382 142.198 11.5396 142.192 15.8764V126.403C142.192 130.745 140.648 134.463 137.558 137.558C134.469 140.653 130.75 142.197 126.403 142.192H15.8765ZM23.7712 110.613H118.508L88.9028 71.1396L65.2186 102.719L47.4554 79.0343L23.7712 110.613Z" fill="#5469FA"/>
</svg>
