<svg width="226" height="60" viewBox="0 0 226 60" fill="none" xmlns="http://www.w3.org/2000/svg">
<path d="M0.09375 43.9648V0.639404H13.3606V32.5764L25.3978 32.5748V43.9632L0.09375 43.9648Z" fill="white"/>
<path d="M51.0101 59.4365V16.1111H64.2769V59.4365H51.0101ZM25.3978 59.4365V16.1111H38.6646V59.4365H25.3978ZM38.6646 43.6537V32.0178H51.0101V43.6537H38.6646Z" fill="white"/>
<path d="M75.9575 46.0381V15.8765H81.5589V40.8675H95.4764V46.0381H75.9575ZM98.9476 46.0381V23.3307H104.247V46.0381H98.9476ZM101.533 18.5049C100.47 18.5049 99.637 18.2463 99.0338 17.7293C98.4593 17.1835 98.172 16.4223 98.172 15.4456C98.172 14.5264 98.4737 13.7796 99.0769 13.205C99.6801 12.6305 100.499 12.3433 101.533 12.3433C102.624 12.3433 103.457 12.6162 104.032 13.162C104.635 13.679 104.937 14.4402 104.937 15.4456C104.937 16.3361 104.635 17.0686 104.032 17.6431C103.429 18.2176 102.596 18.5049 101.533 18.5049ZM110.839 46.0381V17.5569H116.138V46.0381H110.839ZM106.357 28.2428V23.3307H121.093V28.2428H106.357ZM132.977 46.469C130.592 46.469 128.481 45.9663 126.643 44.9609C124.833 43.9555 123.411 42.591 122.377 40.8675C121.372 39.1153 120.869 37.1189 120.869 34.8783C120.869 33.0973 121.156 31.4744 121.731 30.0094C122.305 28.5444 123.095 27.2805 124.101 26.2176C125.135 25.1261 126.356 24.293 127.763 23.7185C129.199 23.1153 130.765 22.8137 132.46 22.8137C133.953 22.8137 135.347 23.1009 136.639 23.6754C137.932 24.2499 139.052 25.0399 140 26.0453C140.948 27.0219 141.666 28.1997 142.154 29.5785C142.671 30.9286 142.916 32.4079 142.887 34.0165L142.844 35.8693H124.445L123.454 32.2499H138.406L137.716 32.9824V32.0345C137.63 31.144 137.343 30.3684 136.855 29.7077C136.366 29.0183 135.734 28.4869 134.959 28.1135C134.212 27.7113 133.379 27.5103 132.46 27.5103C131.052 27.5103 129.86 27.7831 128.883 28.3289C127.935 28.8747 127.217 29.6647 126.729 30.6988C126.241 31.7042 125.996 32.9681 125.996 34.4905C125.996 35.9555 126.298 37.2338 126.901 38.3253C127.533 39.4169 128.409 40.2643 129.53 40.8675C130.679 41.442 132.014 41.7293 133.537 41.7293C134.6 41.7293 135.576 41.5569 136.467 41.2122C137.357 40.8675 138.32 40.2499 139.354 39.3594L141.982 43.0219C141.206 43.7401 140.316 44.3577 139.311 44.8747C138.334 45.363 137.3 45.7508 136.208 46.0381C135.117 46.3253 134.04 46.469 132.977 46.469ZM144.996 46.0381V14.153H150.252V27.9842L149.261 28.5013C149.549 27.4672 150.109 26.5336 150.942 25.7006C151.775 24.8388 152.766 24.1494 153.915 23.6323C155.064 23.1153 156.241 22.8568 157.448 22.8568C159.171 22.8568 160.608 23.2015 161.757 23.8909C162.934 24.5803 163.811 25.6144 164.385 26.9932C164.988 28.372 165.29 30.0955 165.29 32.1638V46.0381H159.99V32.5515C159.99 31.4025 159.832 30.4546 159.516 29.7077C159.2 28.9322 158.712 28.372 158.051 28.0273C157.391 27.6539 156.586 27.4815 155.638 27.5103C154.863 27.5103 154.145 27.6395 153.484 27.898C152.852 28.1279 152.292 28.4726 151.803 28.9322C151.344 29.363 150.97 29.8657 150.683 30.4402C150.425 31.0147 150.295 31.6467 150.295 32.3361V46.0381H147.667C147.15 46.0381 146.662 46.0381 146.202 46.0381C145.771 46.0381 145.369 46.0381 144.996 46.0381ZM179.051 46.469C176.782 46.469 174.757 45.9663 172.976 44.9609C171.195 43.9268 169.787 42.5192 168.753 40.7383C167.719 38.9573 167.202 36.9322 167.202 34.6629C167.202 32.3936 167.719 30.3684 168.753 28.5875C169.787 26.8065 171.195 25.4133 172.976 24.4079C174.757 23.3738 176.782 22.8568 179.051 22.8568C181.292 22.8568 183.303 23.3738 185.084 24.4079C186.864 25.4133 188.258 26.8065 189.263 28.5875C190.297 30.3684 190.814 32.3936 190.814 34.6629C190.814 36.9322 190.297 38.9573 189.263 40.7383C188.258 42.5192 186.864 43.9268 185.084 44.9609C183.303 45.9663 181.292 46.469 179.051 46.469ZM179.051 41.7724C180.286 41.7724 181.378 41.4564 182.326 40.8244C183.303 40.1925 184.064 39.3451 184.61 38.2823C185.184 37.2194 185.457 36.013 185.428 34.6629C185.457 33.284 185.184 32.0632 184.61 31.0004C184.064 29.9375 183.303 29.1045 182.326 28.5013C181.378 27.8693 180.286 27.5533 179.051 27.5533C177.816 27.5533 176.696 27.8693 175.69 28.5013C174.714 29.1045 173.952 29.9519 173.407 31.0435C172.861 32.1063 172.588 33.3128 172.588 34.6629C172.588 36.013 172.861 37.2194 173.407 38.2823C173.952 39.3451 174.714 40.1925 175.69 40.8244C176.696 41.4564 177.816 41.7724 179.051 41.7724ZM200.553 46.469C198.542 46.469 196.733 46.1386 195.124 45.4779C193.544 44.7885 192.251 43.8119 191.246 42.548L194.693 39.5749C195.555 40.5516 196.517 41.2553 197.58 41.6862C198.643 42.1171 199.763 42.3325 200.941 42.3325C201.429 42.3325 201.86 42.2751 202.234 42.1602C202.636 42.0453 202.98 41.8729 203.268 41.6431C203.555 41.4133 203.77 41.1548 203.914 40.8675C204.086 40.5516 204.172 40.2068 204.172 39.8334C204.172 39.144 203.914 38.5982 203.397 38.1961C203.11 37.995 202.65 37.7796 202.018 37.5498C201.415 37.32 200.625 37.0901 199.648 36.8603C198.097 36.4582 196.804 35.9986 195.77 35.4815C194.736 34.9358 193.932 34.3325 193.357 33.6718C192.869 33.1261 192.496 32.5085 192.237 31.8191C192.007 31.1296 191.892 30.3828 191.892 29.5785C191.892 28.5731 192.108 27.6682 192.539 26.8639C192.998 26.0309 193.616 25.3128 194.392 24.7095C195.167 24.1063 196.072 23.6467 197.106 23.3307C198.14 23.0147 199.217 22.8568 200.338 22.8568C201.487 22.8568 202.593 23.0004 203.655 23.2876C204.747 23.5749 205.752 23.9914 206.672 24.5372C207.62 25.0542 208.424 25.6862 209.085 26.4331L206.155 29.6647C205.609 29.1476 205.006 28.688 204.345 28.2858C203.713 27.8837 203.067 27.5677 202.406 27.3379C201.745 27.0794 201.128 26.9501 200.553 26.9501C200.007 26.9501 199.519 27.0076 199.088 27.1225C198.657 27.2086 198.298 27.3523 198.011 27.5533C197.724 27.7544 197.494 28.0129 197.322 28.3289C197.178 28.6162 197.106 28.9609 197.106 29.363C197.135 29.7077 197.221 30.0381 197.365 30.3541C197.537 30.6413 197.767 30.8855 198.054 31.0866C198.37 31.2876 198.844 31.5174 199.476 31.776C200.108 32.0345 200.927 32.2787 201.932 32.5085C203.339 32.8819 204.517 33.2984 205.465 33.758C206.413 34.2176 207.16 34.749 207.706 35.3523C208.251 35.8693 208.639 36.4726 208.869 37.162C209.099 37.8514 209.214 38.6126 209.214 39.4456C209.214 40.7957 208.826 42.0022 208.05 43.065C207.304 44.1279 206.269 44.9609 204.948 45.5641C203.655 46.1673 202.19 46.469 200.553 46.469ZM213.753 46.0381V17.5569H219.053V46.0381H213.753ZM209.272 28.2428V23.3307H224.008V28.2428H209.272Z" fill="white"/>
</svg>
