<svg width="533" height="131" viewBox="0 0 533 131" fill="none" xmlns="http://www.w3.org/2000/svg">
<path d="M0 96.529V0H29.5584V71.1557L56.3774 71.1521V96.5254L0 96.529Z" fill="#F87697"/>
<path d="M113.442 131V34.471H143V131H113.442ZM56.3774 131V34.471H85.9358V131H56.3774ZM85.9358 95.8359V69.911H113.442V95.8359H85.9358Z" fill="#F87697"/>
<path d="M169.024 101.5V34.3H181.504V89.98H212.512V101.5H169.024ZM220.246 101.5V50.908H232.054V101.5H220.246ZM226.006 40.156C223.638 40.156 221.782 39.58 220.438 38.428C219.158 37.212 218.518 35.516 218.518 33.34C218.518 31.292 219.19 29.628 220.534 28.348C221.878 27.068 223.702 26.428 226.006 26.428C228.438 26.428 230.294 27.036 231.574 28.252C232.918 29.404 233.59 31.1 233.59 33.34C233.59 35.324 232.918 36.956 231.574 38.236C230.23 39.516 228.374 40.156 226.006 40.156ZM246.739 101.5V38.044H258.547V101.5H246.739ZM236.755 61.852V50.908H269.587V61.852H236.755ZM296.063 102.46C290.751 102.46 286.047 101.34 281.951 99.1C277.919 96.86 274.751 93.82 272.447 89.98C270.207 86.076 269.087 81.628 269.087 76.636C269.087 72.668 269.727 69.052 271.007 65.788C272.287 62.524 274.047 59.708 276.287 57.34C278.591 54.908 281.311 53.052 284.447 51.772C287.647 50.428 291.135 49.756 294.911 49.756C298.239 49.756 301.343 50.396 304.223 51.676C307.103 52.956 309.599 54.716 311.711 56.956C313.823 59.132 315.423 61.756 316.511 64.828C317.663 67.836 318.207 71.132 318.143 74.716L318.047 78.844H277.055L274.847 70.78H308.159L306.623 72.412V70.3C306.431 68.316 305.791 66.588 304.703 65.116C303.615 63.58 302.207 62.396 300.479 61.564C298.815 60.668 296.959 60.22 294.911 60.22C291.775 60.22 289.119 60.828 286.943 62.044C284.831 63.26 283.231 65.02 282.143 67.324C281.055 69.564 280.511 72.38 280.511 75.772C280.511 79.036 281.183 81.884 282.527 84.316C283.935 86.748 285.887 88.636 288.383 89.98C290.943 91.26 293.919 91.9 297.311 91.9C299.679 91.9 301.855 91.516 303.839 90.748C305.823 89.98 307.967 88.604 310.271 86.62L316.127 94.78C314.399 96.38 312.415 97.756 310.175 98.908C307.999 99.996 305.695 100.86 303.263 101.5C300.831 102.14 298.431 102.46 296.063 102.46ZM322.841 101.5V30.46H334.553V61.276L332.345 62.428C332.985 60.124 334.233 58.044 336.089 56.188C337.945 54.268 340.153 52.732 342.713 51.58C345.273 50.428 347.897 49.852 350.585 49.852C354.425 49.852 357.625 50.62 360.185 52.156C362.809 53.692 364.761 55.996 366.041 59.068C367.385 62.14 368.057 65.98 368.057 70.588V101.5H356.249V71.452C356.249 68.892 355.897 66.78 355.193 65.116C354.489 63.388 353.401 62.14 351.929 61.372C350.457 60.54 348.665 60.156 346.553 60.22C344.825 60.22 343.225 60.508 341.753 61.084C340.345 61.596 339.097 62.364 338.009 63.388C336.985 64.348 336.153 65.468 335.513 66.748C334.937 68.028 334.649 69.436 334.649 70.972V101.5H328.793C327.641 101.5 326.553 101.5 325.529 101.5C324.569 101.5 323.673 101.5 322.841 101.5ZM398.717 102.46C393.661 102.46 389.149 101.34 385.181 99.1C381.213 96.796 378.077 93.66 375.773 89.692C373.469 85.724 372.317 81.212 372.317 76.156C372.317 71.1 373.469 66.588 375.773 62.62C378.077 58.652 381.213 55.548 385.181 53.308C389.149 51.004 393.661 49.852 398.717 49.852C403.709 49.852 408.189 51.004 412.157 53.308C416.125 55.548 419.229 58.652 421.469 62.62C423.773 66.588 424.925 71.1 424.925 76.156C424.925 81.212 423.773 85.724 421.469 89.692C419.229 93.66 416.125 96.796 412.157 99.1C408.189 101.34 403.709 102.46 398.717 102.46ZM398.717 91.996C401.469 91.996 403.901 91.292 406.013 89.884C408.189 88.476 409.885 86.588 411.101 84.22C412.381 81.852 412.989 79.164 412.925 76.156C412.989 73.084 412.381 70.364 411.101 67.996C409.885 65.628 408.189 63.772 406.013 62.428C403.901 61.02 401.469 60.316 398.717 60.316C395.965 60.316 393.469 61.02 391.229 62.428C389.053 63.772 387.357 65.66 386.141 68.092C384.925 70.46 384.317 73.148 384.317 76.156C384.317 79.164 384.925 81.852 386.141 84.22C387.357 86.588 389.053 88.476 391.229 89.884C393.469 91.292 395.965 91.996 398.717 91.996ZM446.623 102.46C442.143 102.46 438.111 101.724 434.527 100.252C431.007 98.716 428.127 96.54 425.887 93.724L433.567 87.1C435.487 89.276 437.631 90.844 439.999 91.804C442.367 92.764 444.863 93.244 447.487 93.244C448.575 93.244 449.535 93.116 450.367 92.86C451.263 92.604 452.031 92.22 452.671 91.708C453.311 91.196 453.791 90.62 454.111 89.98C454.495 89.276 454.687 88.508 454.687 87.676C454.687 86.14 454.111 84.924 452.959 84.028C452.319 83.58 451.295 83.1 449.887 82.588C448.543 82.076 446.783 81.564 444.607 81.052C441.151 80.156 438.271 79.132 435.967 77.98C433.663 76.764 431.871 75.42 430.591 73.948C429.503 72.732 428.671 71.356 428.095 69.82C427.583 68.284 427.327 66.62 427.327 64.828C427.327 62.588 427.807 60.572 428.767 58.78C429.791 56.924 431.167 55.324 432.895 53.98C434.623 52.636 436.639 51.612 438.943 50.908C441.247 50.204 443.647 49.852 446.143 49.852C448.703 49.852 451.167 50.172 453.535 50.812C455.967 51.452 458.207 52.38 460.255 53.596C462.367 54.748 464.159 56.156 465.631 57.82L459.103 65.02C457.887 63.868 456.543 62.844 455.071 61.948C453.663 61.052 452.223 60.348 450.751 59.836C449.279 59.26 447.903 58.972 446.623 58.972C445.407 58.972 444.319 59.1 443.359 59.356C442.399 59.548 441.599 59.868 440.959 60.316C440.319 60.764 439.807 61.34 439.423 62.044C439.103 62.684 438.943 63.452 438.943 64.348C439.007 65.116 439.199 65.852 439.519 66.556C439.903 67.196 440.415 67.74 441.055 68.188C441.759 68.636 442.815 69.148 444.223 69.724C445.631 70.3 447.455 70.844 449.695 71.356C452.831 72.188 455.455 73.116 457.567 74.14C459.679 75.164 461.343 76.348 462.559 77.692C463.775 78.844 464.639 80.188 465.151 81.724C465.663 83.26 465.919 84.956 465.919 86.812C465.919 89.82 465.055 92.508 463.327 94.876C461.663 97.244 459.359 99.1 456.415 100.444C453.535 101.788 450.271 102.46 446.623 102.46ZM476.033 101.5V38.044H487.841V101.5H476.033ZM466.049 61.852V50.908H498.881V61.852H466.049Z" fill="#F87697"/>
</svg>
