<svg width="122" height="151" viewBox="0 0 122 151" fill="none" xmlns="http://www.w3.org/2000/svg">
<path d="M78.673 7.88147L21.5301 7.88147C17.7413 7.88147 14.1077 9.38657 11.4286 12.0657C8.74948 14.7447 7.24438 18.3784 7.24438 22.1672L7.24438 136.453C7.24438 140.242 8.74948 143.875 11.4286 146.554C14.1077 149.234 17.7413 150.739 21.5301 150.739H107.244C111.033 150.739 114.667 149.234 117.346 146.554C120.025 143.875 121.53 140.242 121.53 136.453V50.7386L78.673 7.88147ZM46.5158 109.239C44.3087 111.31 41.0515 112.239 37.2587 112.239C36.5232 112.247 35.7882 112.204 35.0587 112.11V122.296H28.673V94.1815C31.5548 93.7516 34.4667 93.5557 37.3801 93.5958C41.3587 93.5958 44.1872 94.3529 46.0944 95.8743C47.9087 97.3172 49.1372 99.6815 49.1372 102.467C49.1301 105.267 48.2015 107.631 46.5158 109.239ZM73.7087 118.917C70.7087 121.41 66.1444 122.596 60.5658 122.596C57.223 122.596 54.8587 122.381 53.2515 122.167V94.1886C56.1344 93.7678 59.0454 93.5696 61.9587 93.5958C67.3658 93.5958 70.8801 94.5672 73.623 96.6386C76.5872 98.8386 78.4444 102.346 78.4444 107.381C78.4444 112.831 76.4515 116.596 73.7087 118.917ZM100.102 99.0958H89.1587V105.603H99.3872V110.846H89.1587V122.303H82.6872V93.81H100.102V99.0958ZM78.673 57.8815H71.5301V22.1672L107.244 57.8815H78.673Z" fill="#8796FF"/>
<path d="M21.53 15.0243L71.53 15.0243L92.9586 34.31L107.244 47.1672V122.167H21.53L21.53 15.0243Z" fill="white"/>
<path d="M30.5802 91.3096C29.266 91.3096 28.3802 91.4381 27.9231 91.5667V99.981C28.466 100.11 29.1445 100.145 30.0802 100.145C33.5017 100.145 35.6088 98.4167 35.6088 95.4953C35.6088 92.881 33.7945 91.3096 30.5802 91.3096ZM55.4874 91.3953C54.0588 91.3953 53.1302 91.5239 52.5802 91.6524V110.295C53.1302 110.424 54.016 110.424 54.816 110.424C60.6517 110.467 64.4517 107.252 64.4517 100.452C64.4945 94.5239 61.0302 91.3953 55.4874 91.3953Z" fill="#5469FA"/>
<path d="M71.5301 0.738525L14.3873 0.738525C10.5985 0.738525 6.96484 2.24362 4.28575 4.92271C1.60666 7.6018 0.101563 11.2354 0.101562 15.0242L0.101562 129.31C0.101563 133.099 1.60666 136.732 4.28575 139.411C6.96484 142.091 10.5985 143.596 14.3873 143.596H100.102C103.89 143.596 107.524 142.091 110.203 139.411C112.882 136.732 114.387 133.099 114.387 129.31V43.5957L71.5301 0.738525ZM39.373 102.096C37.1658 104.167 33.9087 105.096 30.1158 105.096C29.3804 105.104 28.6453 105.061 27.9158 104.967V115.153H21.5301V87.0385C24.412 86.6086 27.3238 86.4128 30.2373 86.4528C34.2158 86.4528 37.0444 87.21 38.9516 88.7314C40.7658 90.1742 41.9944 92.5385 41.9944 95.3242C41.9873 98.1242 41.0587 100.489 39.373 102.096ZM66.5658 111.774C63.5658 114.267 59.0016 115.453 53.423 115.453C50.0801 115.453 47.7158 115.239 46.1087 115.024V87.0457C48.9916 86.6249 51.9026 86.4267 54.8158 86.4528C60.223 86.4528 63.7373 87.4242 66.4801 89.4957C69.4444 91.6957 71.3016 95.2028 71.3016 100.239C71.3016 105.689 69.3087 109.453 66.5658 111.774ZM92.9587 91.9528H82.0159V98.46H92.2444V103.703H82.0159V115.16H75.5444V86.6671H92.9587V91.9528ZM71.5301 50.7385H64.3873V15.0242L100.102 50.7385H71.5301Z" fill="#5469FA"/>
</svg>
