<svg width="26" height="27" viewBox="0 0 26 27" fill="none" xmlns="http://www.w3.org/2000/svg">
<path d="M6.99976 13.25C6.99976 13.4357 7.07877 13.6137 7.21943 13.745C7.36008 13.8762 7.55084 13.95 7.74976 13.95H13.4423L11.7173 15.553C11.647 15.6181 11.5912 15.6955 11.5531 15.7808C11.515 15.8661 11.4954 15.9576 11.4954 16.05C11.4954 16.1424 11.515 16.2339 11.5531 16.3192C11.5912 16.4045 11.647 16.4819 11.7173 16.547C11.787 16.6126 11.8699 16.6647 11.9613 16.7002C12.0527 16.7358 12.1507 16.7541 12.2498 16.7541C12.3488 16.7541 12.4468 16.7358 12.5382 16.7002C12.6296 16.6647 12.7125 16.6126 12.7823 16.547L15.7823 13.747C15.8505 13.6804 15.9041 13.6019 15.9398 13.516C16.0148 13.3456 16.0148 13.1544 15.9398 12.984C15.9041 12.8981 15.8505 12.8196 15.7823 12.753L12.7823 9.953C12.7123 9.88773 12.6293 9.83596 12.5379 9.80064C12.4466 9.76532 12.3487 9.74714 12.2498 9.74714C12.1509 9.74714 12.0529 9.76532 11.9616 9.80064C11.8702 9.83596 11.7872 9.88773 11.7173 9.953C11.6473 10.0183 11.5919 10.0958 11.554 10.181C11.5162 10.2663 11.4967 10.3577 11.4967 10.45C11.4967 10.5423 11.5162 10.6337 11.554 10.719C11.5919 10.8043 11.6473 10.8817 11.7173 10.947L13.4423 12.55H7.74976C7.55084 12.55 7.36008 12.6237 7.21943 12.755C7.07877 12.8863 6.99976 13.0643 6.99976 13.25ZM16.7498 6.25H9.24976C8.65302 6.25 8.08072 6.47125 7.65877 6.86508C7.23681 7.2589 6.99976 7.79305 6.99976 8.35V10.45C6.99976 10.6357 7.07877 10.8137 7.21943 10.945C7.36008 11.0762 7.55084 11.15 7.74976 11.15C7.94867 11.15 8.13943 11.0762 8.28009 10.945C8.42074 10.8137 8.49976 10.6357 8.49976 10.45V8.35C8.49976 8.16435 8.57877 7.9863 8.71943 7.85503C8.86008 7.72375 9.05084 7.65 9.24976 7.65H16.7498C16.9487 7.65 17.1394 7.72375 17.2801 7.85503C17.4207 7.9863 17.4998 8.16435 17.4998 8.35V18.15C17.4998 18.3357 17.4207 18.5137 17.2801 18.645C17.1394 18.7763 16.9487 18.85 16.7498 18.85H9.24976C9.05084 18.85 8.86008 18.7763 8.71943 18.645C8.57877 18.5137 8.49976 18.3357 8.49976 18.15V16.05C8.49976 15.8643 8.42074 15.6863 8.28009 15.555C8.13943 15.4237 7.94867 15.35 7.74976 15.35C7.55084 15.35 7.36008 15.4237 7.21943 15.555C7.07877 15.6863 6.99976 15.8643 6.99976 16.05V18.15C6.99976 18.707 7.23681 19.2411 7.65877 19.6349C8.08072 20.0288 8.65302 20.25 9.24976 20.25H16.7498C17.3465 20.25 17.9188 20.0288 18.3407 19.6349C18.7627 19.2411 18.9998 18.707 18.9998 18.15V8.35C18.9998 7.79305 18.7627 7.2589 18.3407 6.86508C17.9188 6.47125 17.3465 6.25 16.7498 6.25Z" fill="white"/>
</svg>
