<svg width="26" height="24" viewBox="0 0 26 24" fill="none" xmlns="http://www.w3.org/2000/svg">
<path d="M6.99976 12.25C6.99976 12.4357 7.07877 12.6137 7.21943 12.745C7.36008 12.8762 7.55084 12.95 7.74976 12.95H13.4423L11.7173 14.553C11.647 14.6181 11.5912 14.6955 11.5531 14.7808C11.515 14.8661 11.4954 14.9576 11.4954 15.05C11.4954 15.1424 11.515 15.2339 11.5531 15.3192C11.5912 15.4045 11.647 15.4819 11.7173 15.547C11.787 15.6126 11.8699 15.6647 11.9613 15.7002C12.0527 15.7358 12.1507 15.7541 12.2498 15.7541C12.3488 15.7541 12.4468 15.7358 12.5382 15.7002C12.6296 15.6647 12.7125 15.6126 12.7823 15.547L15.7823 12.747C15.8505 12.6804 15.9041 12.6019 15.9398 12.516C16.0148 12.3456 16.0148 12.1544 15.9398 11.984C15.9041 11.8981 15.8505 11.8196 15.7823 11.753L12.7823 8.953C12.7123 8.88773 12.6293 8.83596 12.5379 8.80064C12.4466 8.76532 12.3487 8.74714 12.2498 8.74714C12.1509 8.74714 12.0529 8.76532 11.9616 8.80064C11.8702 8.83596 11.7872 8.88773 11.7173 8.953C11.6473 9.01827 11.5919 9.09575 11.554 9.18103C11.5162 9.2663 11.4967 9.3577 11.4967 9.45C11.4967 9.5423 11.5162 9.6337 11.554 9.71897C11.5919 9.80425 11.6473 9.88173 11.7173 9.947L13.4423 11.55H7.74976C7.55084 11.55 7.36008 11.6237 7.21943 11.755C7.07877 11.8863 6.99976 12.0643 6.99976 12.25ZM16.7498 5.25H9.24976C8.65302 5.25 8.08072 5.47125 7.65877 5.86508C7.23681 6.2589 6.99976 6.79305 6.99976 7.35V9.45C6.99976 9.63565 7.07877 9.8137 7.21943 9.94497C7.36008 10.0762 7.55084 10.15 7.74976 10.15C7.94867 10.15 8.13943 10.0762 8.28009 9.94497C8.42074 9.8137 8.49976 9.63565 8.49976 9.45V7.35C8.49976 7.16435 8.57877 6.9863 8.71943 6.85503C8.86008 6.72375 9.05084 6.65 9.24976 6.65H16.7498C16.9487 6.65 17.1394 6.72375 17.2801 6.85503C17.4207 6.9863 17.4998 7.16435 17.4998 7.35V17.15C17.4998 17.3357 17.4207 17.5137 17.2801 17.645C17.1394 17.7763 16.9487 17.85 16.7498 17.85H9.24976C9.05084 17.85 8.86008 17.7763 8.71943 17.645C8.57877 17.5137 8.49976 17.3357 8.49976 17.15V15.05C8.49976 14.8643 8.42074 14.6863 8.28009 14.555C8.13943 14.4237 7.94867 14.35 7.74976 14.35C7.55084 14.35 7.36008 14.4237 7.21943 14.555C7.07877 14.6863 6.99976 14.8643 6.99976 15.05V17.15C6.99976 17.707 7.23681 18.2411 7.65877 18.6349C8.08072 19.0288 8.65302 19.25 9.24976 19.25H16.7498C17.3465 19.25 17.9188 19.0288 18.3407 18.6349C18.7627 18.2411 18.9998 17.707 18.9998 17.15V7.35C18.9998 6.79305 18.7627 6.2589 18.3407 5.86508C17.9188 5.47125 17.3465 5.25 16.7498 5.25Z" fill="black"/>
</svg>
