<svg width="27" height="26" viewBox="0 0 27 26" fill="none" xmlns="http://www.w3.org/2000/svg">
<g clip-path="url(#clip0_104_6988)">
<path d="M24.7939 9.4453C22.8398 7.49449 19.6743 7.49449 17.6804 9.4453L9.71551 17.4086C9.22882 17.8961 9.22882 18.7086 9.71551 19.1953C10.2063 19.682 11.0188 19.682 11.5063 19.1953L19.4696 11.2304C20.4438 10.2578 22.0265 10.2578 23.0031 11.2304C23.9806 12.2086 23.9806 13.7906 23.0031 14.7688L15.1617 22.6102C16.1343 23.5844 17.7219 23.5844 18.6944 22.6102L24.75 16.5547C26.739 14.5657 26.739 11.3969 24.7923 9.44611L24.7939 9.4453ZM22.1118 12.0859C21.6243 11.5992 20.8118 11.5992 20.3251 12.0859L12.3569 20.0931C11.3828 21.0657 9.80001 21.0657 8.82338 20.0931C8.33669 19.6024 7.52419 19.6024 7.03832 20.0931C6.54676 20.5798 6.54676 21.3923 7.03832 21.8782C8.98832 23.829 12.1538 23.829 14.1469 21.8782L22.1118 13.9149C22.5985 13.3851 22.5985 12.5726 22.1118 12.0859ZM19.4704 4.1218C17.5196 2.17099 14.3508 2.17099 12.3569 4.1218L4.39201 12.0851C3.90532 12.5718 3.90532 13.3843 4.39201 13.8718C4.88276 14.3626 5.69526 14.3626 6.18276 13.8718L14.1932 5.90686C15.1674 4.9343 16.7615 4.9343 17.7357 5.90686C18.2264 6.39761 19.0389 6.39761 19.5208 5.90686C19.9782 5.3828 19.9782 4.61255 19.4915 4.1218H19.4704ZM16.7883 6.76243C16.3008 6.27574 15.4883 6.27574 15.0016 6.76243L7.03832 14.7696C6.06413 15.7422 4.47732 15.7422 3.49988 14.7696C2.52732 13.7954 2.52732 12.2094 3.49988 11.2312L11.3413 3.38974C10.3688 2.41555 8.78601 2.41555 7.80857 3.38974L1.71482 9.4453C-0.235994 11.3961 -0.235994 14.5649 1.71482 16.5539C3.66482 18.5047 6.83032 18.5047 8.82338 16.5539L16.7883 8.59055C17.275 8.0608 17.275 7.2483 16.7883 6.76161V6.76243Z" fill="white"/>
</g>
<defs>
<clipPath id="clip0_104_6988">
<rect width="26" height="26" fill="white" transform="translate(0.25)"/>
</clipPath>
</defs>
</svg>
