<svg width="27" height="27" viewBox="0 0 27 27" fill="none" xmlns="http://www.w3.org/2000/svg">
<g clip-path="url(#clip0_104_6915)">
<path d="M24.7939 10.1958C22.8398 8.24498 19.6743 8.24498 17.6804 10.1958L9.71551 18.1591C9.22882 18.6466 9.22882 19.4591 9.71551 19.9458C10.2063 20.4325 11.0188 20.4325 11.5063 19.9458L19.4696 11.9809C20.4438 11.0083 22.0265 11.0083 23.0031 11.9809C23.9806 12.9591 23.9806 14.541 23.0031 15.5193L15.1617 23.3607C16.1343 24.3349 17.7219 24.3349 18.6944 23.3607L24.75 17.3052C26.739 15.3162 26.739 12.1474 24.7923 10.1966L24.7939 10.1958ZM22.1118 12.8364C21.6243 12.3497 20.8118 12.3497 20.3251 12.8364L12.3569 20.8436C11.3828 21.8162 9.80001 21.8162 8.82338 20.8436C8.33669 20.3529 7.52419 20.3529 7.03832 20.8436C6.54676 21.3303 6.54676 22.1428 7.03832 22.6287C8.98832 24.5795 12.1538 24.5795 14.1469 22.6287L22.1118 14.6654C22.5985 14.1356 22.5985 13.3231 22.1118 12.8364ZM19.4704 4.87229C17.5196 2.92148 14.3508 2.92148 12.3569 4.87229L4.39201 12.8356C3.90532 13.3223 3.90532 14.1348 4.39201 14.6223C4.88276 15.113 5.69526 15.113 6.18276 14.6223L14.1932 6.65735C15.1674 5.68479 16.7615 5.68479 17.7357 6.65735C18.2264 7.1481 19.0389 7.1481 19.5208 6.65735C19.9782 6.13329 19.9782 5.36304 19.4915 4.87229H19.4704ZM16.7883 7.51291C16.3008 7.02623 15.4883 7.02623 15.0016 7.51291L7.03832 15.5201C6.06413 16.4927 4.47732 16.4927 3.49988 15.5201C2.52732 14.5459 2.52732 12.9599 3.49988 11.9817L11.3413 4.14023C10.3688 3.16604 8.78601 3.16604 7.80857 4.14023L1.71482 10.1958C-0.235994 12.1466 -0.235994 15.3154 1.71482 17.3044C3.66482 19.2552 6.83032 19.2552 8.82338 17.3044L16.7883 9.34104C17.275 8.81129 17.275 7.99879 16.7883 7.5121V7.51291Z" fill="#5469FA"/>
</g>
<defs>
<clipPath id="clip0_104_6915">
<rect width="26" height="26" fill="white" transform="translate(0.25 0.75)"/>
</clipPath>
</defs>
</svg>
