<svg width="250" height="42" viewBox="0 0 250 42" fill="none" xmlns="http://www.w3.org/2000/svg">
<g clip-path="url(#clip0_14_449)">
<path fill-rule="evenodd" clip-rule="evenodd" d="M66.8069 0.693115L45.4896 41.4727H25.4667L34.388 24.5719H33.9877C26.6278 33.9212 15.6466 40.076 0 41.4727V24.8059C0 24.8059 10.0095 24.2273 15.8937 18.1734H0V0.693437H17.8629V15.0704L18.2638 15.0688L25.5632 0.693437H39.0724V14.9793L39.4734 14.9787L47.0465 0.693115H66.8069Z" fill="white"/>
<path d="M183.051 36.9714H188.804V4.65771H183.051V36.9714Z" fill="white"/>
<path fill-rule="evenodd" clip-rule="evenodd" d="M151.336 36.6415C152.587 37.1503 153.858 37.4044 155.151 37.4044C157.286 37.4044 159.196 36.8959 160.882 35.8786C162.568 34.8613 163.875 33.4589 164.802 31.6719C165.729 29.8709 166.193 27.8295 166.193 25.5473C166.193 23.2651 165.715 21.2237 164.76 19.4227C163.805 17.6218 162.477 16.2264 160.777 15.2366C159.077 14.233 157.146 13.7381 154.982 13.7519C153.605 13.7519 152.285 14.0131 151.02 14.5355C149.756 15.0579 148.702 15.8003 147.859 16.7626C147.794 16.8359 147.731 16.9099 147.67 16.9846V4.67847H141.896V36.9716H147.627L147.616 33.9548C147.764 34.1326 147.923 34.3063 148.091 34.4762C149.004 35.3975 150.086 36.1192 151.336 36.6415ZM157.237 31.4243C156.296 31.9879 155.221 32.2699 154.013 32.2699C152.818 32.2699 151.723 31.9811 150.725 31.4037C149.728 30.8125 148.934 30.0084 148.344 28.9911C147.768 27.9738 147.48 26.819 147.48 25.5267C147.466 24.2344 147.747 23.0796 148.323 22.0623C148.913 21.0312 149.707 20.2338 150.704 19.6702C151.702 19.0928 152.804 18.811 154.013 18.8247C155.221 18.811 156.296 19.0859 157.237 19.6496C158.192 20.1995 158.923 20.9899 159.428 22.021C159.948 23.0383 160.208 24.207 160.208 25.5267C160.208 26.8464 159.948 28.015 159.428 29.0323C158.923 30.0496 158.192 30.8469 157.237 31.4243Z" fill="white"/>
<path d="M75.1416 6.6167H81.7164L87.5979 27.6354L93.8546 6.6167H99.3335L106.119 27.2136L111.767 6.6167H117.793L108.901 36.9714H103.232L96.3321 16.8498L89.9981 36.9714H84.2661L75.1416 6.6167Z" fill="white"/>
<path fill-rule="evenodd" clip-rule="evenodd" d="M127.503 37.5077C125.213 37.5213 123.148 37.0264 121.307 36.0229C119.481 35.0056 118.041 33.5964 116.987 31.7956C115.948 29.9945 115.428 27.9393 115.428 25.6297C115.428 23.389 115.962 21.3611 117.029 19.5464C118.097 17.7318 119.544 16.3158 121.37 15.2985C123.197 14.2811 125.234 13.7725 127.482 13.7725C130.01 13.7725 132.223 14.3224 134.12 15.4222C136.03 16.522 137.456 18.0823 138.397 20.1032C139.353 22.1104 139.697 24.4131 139.43 27.0113H121.379C121.43 28.0465 121.694 28.9883 122.171 29.8364C122.705 30.7713 123.45 31.5 124.405 32.0223C125.36 32.5447 126.428 32.8059 127.608 32.8059C128.507 32.7923 129.343 32.641 130.116 32.3524C130.888 32.05 131.542 31.6443 132.076 31.1357C132.623 30.627 133.01 30.0496 133.234 29.4035H139.262C138.896 30.9844 138.166 32.3936 137.07 33.6308C135.974 34.8543 134.597 35.8097 132.94 36.4972C131.282 37.1845 129.469 37.5213 127.503 37.5077ZM122.192 21.3405C121.856 21.915 121.622 22.5337 121.493 23.1965H133.458C133.371 22.3591 133.107 21.5961 132.665 20.9075C132.16 20.0964 131.471 19.4708 130.6 19.0309C129.729 18.5773 128.746 18.3504 127.65 18.3504C126.484 18.3504 125.424 18.6116 124.468 19.134C123.513 19.6564 122.754 20.3919 122.192 21.3405Z" fill="white"/>
<path d="M170.429 14.2468C170.429 12.4046 170.857 10.7687 171.714 9.33891C172.571 7.89541 173.772 6.77498 175.318 5.97763C176.877 5.16651 178.696 4.74723 180.776 4.71973V9.7307C179.806 9.74445 178.977 9.94381 178.289 10.3287C177.615 10.6999 177.095 11.2429 176.729 11.9578C176.393 12.6159 176.212 13.3789 176.185 14.2468H180.649V19.0103H176.182V36.9716H170.429V19.0103H166.72V14.2468H170.429Z" fill="white"/>
<path fill-rule="evenodd" clip-rule="evenodd" d="M203.429 37.4664C201.083 37.4664 198.983 36.9644 197.128 35.9609C195.288 34.9436 193.841 33.5412 192.787 31.7542C191.747 29.9532 191.228 27.9118 191.228 25.6296C191.228 23.3338 191.747 21.2854 192.787 19.4844C193.841 17.6698 195.288 16.2606 197.128 15.2571C198.983 14.2535 201.083 13.7517 203.429 13.7517C205.789 13.7517 207.897 14.2535 209.751 15.2571C211.619 16.2606 213.073 17.6629 214.113 19.4638C215.153 21.2647 215.679 23.32 215.694 25.6296C215.679 27.9118 215.153 29.9532 214.113 31.7542C213.087 33.5412 211.641 34.9436 209.772 35.9609C207.903 36.9644 205.789 37.4664 203.429 37.4664ZM203.429 32.2904C204.665 32.2904 205.761 32.0154 206.716 31.4654C207.672 30.9018 208.409 30.1181 208.929 29.1146C209.449 28.0973 209.709 26.9357 209.709 25.6296C209.709 24.3099 209.449 23.1413 208.929 22.124C208.409 21.1067 207.672 20.3231 206.716 19.7731C205.761 19.2095 204.665 18.9277 203.429 18.9277C202.207 18.9277 201.118 19.2095 200.163 19.7731C199.221 20.3231 198.491 21.1067 197.971 22.124C197.451 23.1413 197.198 24.3099 197.212 25.6296C197.212 26.9357 197.472 28.0973 197.992 29.1146C198.526 30.1181 199.256 30.9018 200.184 31.4654C201.125 32.0154 202.207 32.2904 203.429 32.2904Z" fill="white"/>
<path d="M221.91 14.2466H215.504L222.437 36.9714H228.042L232.602 22.457L237.526 36.9714H243.047L250 14.2466H244.206L240.262 28.3913L235.903 14.2466H230.297L225.959 28.703L221.91 14.2466Z" fill="white"/>
</g>
<defs>
<clipPath id="clip0_14_449">
<rect width="250" height="41" fill="white" transform="translate(0 0.538086)"/>
</clipPath>
</defs>
</svg>
