<svg width="27" height="10" viewBox="0 0 27 10" fill="none" xmlns="http://www.w3.org/2000/svg">
<path d="M15.4534 0.194564C14.9325 0.442498 14.7068 0.905308 14.7068 2.16151C14.7068 2.16151 14.9672 1.91357 15.384 1.76481C15.6878 1.65737 15.9049 1.51688 16.0611 1.40944C16.5126 1.08713 16.582 0.698697 16.582 0.0210107C16.5733 0.0210107 15.8614 -0.0203116 15.4534 0.194564Z" fill="#5469FA"/>
<path d="M12.2672 0.48387C11.8158 0.839242 11.7029 1.45081 11.7029 1.45081L10.2444 6.77313L9.0463 2.41775C8.93344 1.95494 8.70772 1.3847 8.36913 0.988002C7.95241 0.48387 7.08424 0.450812 6.98006 0.450812C6.90193 0.450812 6.04244 0.48387 5.591 0.988002C5.25241 1.3847 5.02669 1.95494 4.91383 2.41775L3.78521 6.77313L2.32669 1.45081C2.32669 1.45081 2.21383 0.880564 1.76238 0.48387C1.05048 -0.1277 0 0.0210603 0 0.0210603L2.77814 9.97974C2.77814 9.97974 3.68103 10.0541 4.13248 9.83924C4.73151 9.54999 5.03537 9.34337 5.37396 7.97974C5.71254 6.76486 6.61543 3.22767 6.68489 2.97974C6.71961 2.8723 6.79775 2.54999 7.02347 2.54999C7.2492 2.54999 7.32733 2.83924 7.36206 2.97974C7.44019 3.22767 8.3344 6.76486 8.67299 7.97974C9.0463 9.33511 9.30675 9.54999 9.91447 9.83924C10.3659 10.0541 11.2688 9.97974 11.2688 9.97974L14.0296 0.0210603C14.0296 0.0210603 12.9791 -0.119436 12.2672 0.48387Z" fill="#5469FA"/>
<path d="M16.5732 1.62427C16.5732 1.62427 16.3822 1.8722 16.0089 2.08708C15.7485 2.22757 15.5228 2.30195 15.2623 2.44245C14.8109 2.65733 14.698 2.8722 14.698 3.19452V3.30195V3.83914V3.94658V9.94658C14.698 9.94658 15.4099 10.021 15.8613 9.80609C16.4604 9.51683 16.5732 9.23584 16.5732 8.02096V2.02096V1.62427Z" fill="#5469FA"/>
<path d="M23.4754 5.02089L27.0001 0.0539485C27.0001 0.0539485 25.5416 -0.193985 24.7863 0.450643C24.3001 0.847337 23.8139 1.59114 23.8139 1.59114L22.5377 3.37626C22.4596 3.4837 22.3901 3.55808 22.2773 3.55808C22.1644 3.55808 22.0516 3.45064 22.0168 3.37626L20.7406 1.59114C20.7406 1.59114 20.2197 0.880395 19.7683 0.450643C19.0217 -0.193985 17.5545 0.0539485 17.5545 0.0539485L20.9664 5.01263L17.4763 9.9713C17.4763 9.9713 19.013 10.1531 19.7683 9.50849C20.2545 9.1118 20.7059 8.43411 20.7059 8.43411L21.9821 6.64899C22.0602 6.54155 22.1297 6.46717 22.2426 6.46717C22.3554 6.46717 22.4683 6.57461 22.503 6.64899L23.7792 8.43411C23.7792 8.43411 24.2654 9.1118 24.7168 9.50849C25.4635 10.1531 26.9654 9.9713 26.9654 9.9713L23.4754 5.02089Z" fill="#5469FA"/>
</svg>
