<svg width="26" height="26" viewBox="0 0 26 26" fill="none" xmlns="http://www.w3.org/2000/svg">
<path d="M13.0005 0C5.83186 0 0.000244141 5.83135 0.000244141 12.9994C0.000244141 20.1681 5.83213 25.9999 13.0002 25.9999C20.168 25.9999 25.9994 20.1681 25.9994 12.9994C25.9996 5.83162 20.1683 0 13.0005 0ZM1.31213 12.9994C1.31213 11.3053 1.67549 9.69622 2.32414 8.24304L7.89964 23.5188C4.001 21.6239 1.31213 17.6259 1.31213 12.9994ZM13.0005 24.6883C11.8531 24.6883 10.7458 24.52 9.69862 24.212L13.2053 14.022L16.7986 23.8646C16.8219 23.9227 16.8502 23.9757 16.8818 24.0256C15.6669 24.453 14.3615 24.6883 13.0005 24.6883ZM14.6109 7.51956C15.3144 7.48255 15.949 7.40825 15.949 7.40825C16.5784 7.33369 16.5047 6.4084 15.8741 6.44541C15.8741 6.44541 13.9812 6.59373 12.7587 6.59373C11.6105 6.59373 9.67998 6.44541 9.67998 6.44541C9.04998 6.4084 8.97649 7.37124 9.60623 7.40825C9.60623 7.40825 10.2027 7.48255 10.8319 7.51956L12.6528 12.5091L10.0949 20.1802L5.83943 7.51983C6.544 7.48309 7.17724 7.40852 7.17724 7.40852C7.80671 7.33423 7.73242 6.4084 7.10214 6.44622C7.10214 6.44622 5.20996 6.59454 3.98723 6.59454C3.76759 6.59454 3.50905 6.58887 3.23511 6.58049C5.3245 3.40695 8.91733 1.31188 13.0005 1.31188C16.0438 1.31188 18.814 2.47518 20.8931 4.38006C20.8426 4.37736 20.7937 4.3706 20.7413 4.3706C19.5937 4.3706 18.7789 5.37073 18.7789 6.44514C18.7789 7.40798 19.3341 8.22332 19.9265 9.18616C20.3715 9.96475 20.8902 10.9651 20.8902 12.4097C20.8902 13.4103 20.506 14.5709 20.0005 16.1881L18.8348 20.084L14.6109 7.51956ZM18.8761 23.1028L22.4463 12.7806C23.1138 11.1135 23.3351 9.78024 23.3351 8.59397C23.3351 8.16415 23.307 7.76459 23.2562 7.39204C24.1693 9.05702 24.6888 10.9678 24.6883 13C24.688 17.3117 22.3506 21.0766 18.8761 23.1028Z" fill="#5469FA"/>
</svg>
