<svg width="37" height="31" viewBox="0 0 37 31" fill="none" xmlns="http://www.w3.org/2000/svg">
<path d="M5.38133 30.4999C4.41931 30.4999 3.59605 30.1576 2.91155 29.4731C2.22705 28.7886 1.88422 27.9648 1.88306 27.0016V6.01195C1.88306 5.04992 2.22589 4.22666 2.91155 3.54216C3.59721 2.85767 4.42047 2.51484 5.38133 2.51367H15.8762L19.3744 6.01195H33.3675C34.3296 6.01195 35.1534 6.35478 35.8391 7.04044C36.5247 7.7261 36.867 8.54937 36.8658 9.51023V27.0016C36.8658 27.9636 36.5236 28.7875 35.8391 29.4731C35.1546 30.1588 34.3307 30.5011 33.3675 30.4999H5.38133ZM22.8727 27.0016H26.371V23.5033H29.8693V20.0051H26.371V16.5068H29.8693V13.0085H26.371V9.51023H22.8727V13.0085H26.371V16.5068H22.8727V20.0051H26.371V23.5033H22.8727V27.0016Z" fill="#FAC3D1"/>
<rect x="17.6255" y="6.01221" width="12.244" height="20.9897" fill="white"/>
<path d="M3.63231 28.7509C2.67028 28.7509 1.84702 28.4086 1.16253 27.7241C0.478031 27.0396 0.135199 26.2158 0.134033 25.2526V4.26293C0.134033 3.3009 0.476864 2.47764 1.16253 1.79314C1.84819 1.10865 2.67145 0.765815 3.63231 0.764648H14.1271L17.6254 4.26293H31.6185C32.5806 4.26293 33.4044 4.60576 34.0901 5.29142C34.7757 5.97708 35.118 6.80034 35.1168 7.7612V25.2526C35.1168 26.2146 34.7746 27.0385 34.0901 27.7241C33.4056 28.4098 32.5817 28.752 31.6185 28.7509H3.63231ZM21.1237 25.2526H24.622V21.7543H28.1202V18.256H24.622V14.7578H28.1202V11.2595H24.622V7.7612H21.1237V11.2595H24.622V14.7578H21.1237V18.256H24.622V21.7543H21.1237V25.2526Z" fill="#F87697"/>
</svg>
