<svg width="39" height="41" viewBox="0 0 39 41" fill="none" xmlns="http://www.w3.org/2000/svg">
<path d="M32.9615 5.10277V19.9249C32.9615 20.9001 32.1708 21.6908 31.1956 21.6908H5.5155C4.5153 21.6908 3.71474 20.8609 3.75073 19.8613L4.33965 3.50742C4.37292 2.58368 5.1129 1.84189 6.03655 1.80636L11.992 1.57731C12.2501 1.56738 12.4761 1.74928 12.5216 2.00361C12.6594 2.77511 13.3304 3.33686 14.1142 3.33686H31.1956C32.1708 3.33686 32.9615 4.12748 32.9615 5.10277Z" fill="#5469F9" stroke="white" stroke-width="1.10008"/>
<path d="M35.5669 6.89763V21.7197C35.5669 22.695 34.7763 23.4856 33.801 23.4856H5.4306C4.45531 23.4856 3.66469 22.695 3.66469 21.7197V2.43943C3.66469 1.46414 4.45531 0.673513 5.4306 0.673513H11.8574C12.7847 0.673513 13.5364 1.42525 13.5364 2.35258C13.5364 3.88745 14.7807 5.13172 16.3156 5.13172H33.801C34.7763 5.13172 35.5669 5.92234 35.5669 6.89763Z" fill="#5469F9" stroke="white" stroke-width="1.10008"/>
<path d="M37.825 11.0392V37.4181C37.825 39.0925 36.4675 40.45 34.793 40.45H4.20696C2.53248 40.45 1.17504 39.0925 1.17504 37.4181V9.38907C1.17504 8.4128 1.96647 7.62137 2.94274 7.62137H13.7866C14.6462 7.62137 15.3812 8.23975 15.5282 9.08668L16.8147 16.4961C17.3628 19.6527 21.8882 19.6709 22.4617 16.5188L23.5163 10.7228C23.6692 9.88233 24.4012 9.27149 25.2554 9.27149H36.0573C37.0335 9.27149 37.825 10.0629 37.825 11.0392Z" fill="#5469F9" stroke="white" stroke-width="1.10008"/>
<path fill-rule="evenodd" clip-rule="evenodd" d="M17.3504 18.0849L19.5868 19.3169L21.8812 18.0849L22.88 15.0877C22.9691 14.8202 22.9934 14.5355 22.9509 14.2568C22.9084 13.9782 22.8003 13.7136 22.6355 13.4849C22.4707 13.2562 22.2539 13.0699 22.0029 12.9413C21.752 12.8128 21.4741 12.7456 21.1922 12.7454H18.0394C17.7576 12.7459 17.4799 12.8133 17.2292 12.942C16.9785 13.0706 16.762 13.257 16.5974 13.4856C16.4328 13.7143 16.3248 13.9788 16.2824 14.2573C16.24 14.5358 16.2643 14.8204 16.3533 15.0877L17.3504 18.0849ZM24.0082 33.4722L22.2865 20.5595H16.9451L15.2234 33.4722C15.2052 33.6079 15.2185 33.7459 15.2624 33.8755C15.3062 34.0052 15.3794 34.123 15.4762 34.2198L18.9855 37.7278C19.0682 37.8107 19.1664 37.8765 19.2746 37.9213C19.3828 37.9662 19.4987 37.9893 19.6158 37.9893C19.7329 37.9893 19.8488 37.9662 19.957 37.9213C20.0651 37.8765 20.1634 37.8107 20.2461 37.7278L23.7554 34.218C23.8522 34.1212 23.9254 34.0034 23.9692 33.8738C24.0131 33.7441 24.0264 33.6061 24.0082 33.4705V33.4722Z" fill="white"/>
</svg>
