<svg width="53" height="42" viewBox="0 0 53 42" fill="none" xmlns="http://www.w3.org/2000/svg">
<path d="M8.12006 42C6.7722 42 5.61876 41.5205 4.65973 40.5615C3.70071 39.6024 3.22038 38.4482 3.21875 37.0987V7.69078C3.21875 6.34291 3.69908 5.18947 4.65973 4.23045C5.62039 3.27142 6.77383 2.79109 8.12006 2.78946H22.824L27.7253 7.69078H47.3306C48.6785 7.69078 49.8327 8.1711 50.7934 9.13176C51.754 10.0924 52.2335 11.2459 52.2319 12.5921V37.0987C52.2319 38.4465 51.7524 39.6008 50.7934 40.5615C49.8343 41.5221 48.6801 42.0016 47.3306 42H8.12006ZM32.6266 37.0987H37.528V32.1974H42.4293V27.296H37.528V22.3947H42.4293V17.4934H37.528V12.5921H32.6266V17.4934H37.528V22.3947H32.6266V27.296H37.528V32.1974H32.6266V37.0987Z" fill="#8796FF"/>
<rect x="25.2747" y="7.69078" width="17.1546" height="29.4079" fill="white"/>
<path d="M5.66941 39.5493C4.32154 39.5493 3.1681 39.0698 2.20908 38.1108C1.25005 37.1518 0.769723 35.9975 0.768089 34.648V5.24012C0.768089 3.89226 1.24842 2.73882 2.20908 1.77979C3.16973 0.820768 4.32318 0.34044 5.66941 0.338806H20.3734L25.2747 5.24012H44.8799C46.2278 5.24012 47.3821 5.72045 48.3427 6.68111C49.3034 7.64177 49.7829 8.79521 49.7813 10.1414V34.648C49.7813 35.9959 49.3017 37.1501 48.3427 38.1108C47.3837 39.0715 46.2294 39.551 44.8799 39.5493H5.66941ZM30.176 34.648H35.0773V29.7467H39.9786V24.8454H35.0773V19.9441H39.9786V15.0428H35.0773V10.1414H30.176V15.0428H35.0773V19.9441H30.176V24.8454H35.0773V29.7467H30.176V34.648Z" fill="#5469FA"/>
</svg>
