<svg width="186" height="151" viewBox="0 0 186 151" fill="none" xmlns="http://www.w3.org/2000/svg">
<path d="M26.5976 150.817C21.7447 150.817 17.5917 149.09 14.1388 145.637C10.6859 142.184 8.95644 138.028 8.95056 133.17V27.2873C8.95056 22.4344 10.68 18.2814 14.1388 14.8285C17.5976 11.3756 21.7506 9.64614 26.5976 9.64026H79.5388L97.1858 27.2873H167.774C172.627 27.2873 176.783 29.0167 180.242 32.4755C183.701 35.9344 185.427 40.0873 185.421 44.9344V133.17C185.421 138.023 183.695 142.178 180.242 145.637C176.789 149.096 172.633 150.823 167.774 150.817H26.5976ZM114.833 133.17H132.48V115.523H150.127V97.8755H132.48V80.2285H150.127V62.5814H132.48V44.9344H114.833V62.5814H132.48V80.2285H114.833V97.8755H132.48V115.523H114.833V133.17Z" fill="#8796FF"/>
<rect x="88.3623" y="27.2874" width="61.7647" height="105.882" fill="white"/>
<path d="M17.774 141.993C12.9211 141.993 8.76813 140.267 5.31519 136.814C1.86225 133.361 0.132835 129.205 0.126953 124.346V18.4638C0.126953 13.6109 1.85637 9.45795 5.31519 6.00501C8.77401 2.55206 12.927 0.822655 17.774 0.816772H70.7152L88.3622 18.4638H158.95C163.803 18.4638 167.959 20.1932 171.418 23.6521C174.877 27.1109 176.603 31.2638 176.598 36.1109V124.346C176.598 129.199 174.871 133.355 171.418 136.814C167.965 140.273 163.809 141.999 158.95 141.993H17.774ZM106.009 124.346H123.656V106.699H141.303V89.0521H123.656V71.405H141.303V53.7579H123.656V36.1109H106.009V53.7579H123.656V71.405H106.009V89.0521H123.656V106.699H106.009V124.346Z" fill="#5469FA"/>
</svg>
