<svg width="54" height="60" viewBox="0 0 54 60" fill="none" xmlns="http://www.w3.org/2000/svg">
<path d="M25.2916 25.2885L14.814 35.758L4.33648 25.2885C2.26539 23.2165 0.855185 20.5768 0.284146 17.7034C-0.286893 14.8299 0.00687974 11.8517 1.12832 9.14517C2.24977 6.43867 4.14852 4.12544 6.58453 2.49796C9.02053 0.870484 11.8844 0.00183105 14.814 0.00183105C17.7437 0.00183105 20.6075 0.870484 23.0436 2.49796C25.4796 4.12544 27.3783 6.43867 28.4998 9.14517C29.6212 11.8517 29.915 14.8299 29.3439 17.7034C28.7729 20.5768 27.3627 23.2165 25.2916 25.2885ZM14.814 20.1979C16.2427 20.1979 17.6129 19.6303 18.6232 18.6201C19.6334 17.6098 20.201 16.2396 20.201 14.8109C20.201 13.3822 19.6334 12.0121 18.6232 11.0018C17.6129 9.99157 16.2427 9.42403 14.814 9.42403C13.3853 9.42403 12.0152 9.99157 11.0049 11.0018C9.99467 12.0121 9.42712 13.3822 9.42712 14.8109C9.42712 16.2396 9.99467 17.6098 11.0049 18.6201C12.0152 19.6303 13.3853 20.1979 14.814 20.1979ZM49.5327 49.5297L39.0552 60.0018L28.5776 49.527C26.5065 47.4549 25.0963 44.8153 24.5253 41.9418C23.9543 39.0684 24.248 36.0901 25.3695 33.3836C26.4909 30.6771 28.3897 28.3639 30.8257 26.7364C33.2617 25.1089 36.1255 24.2403 39.0552 24.2403C41.9848 24.2403 44.8487 25.1089 47.2847 26.7364C49.7207 28.3639 51.6195 30.6771 52.7409 33.3836C53.8623 36.0901 54.1561 39.0684 53.5851 41.9418C53.014 44.8153 51.6038 47.4576 49.5327 49.5297ZM39.0552 44.439C40.4839 44.439 41.8541 43.8715 42.8643 42.8612C43.8746 41.851 44.4421 40.4808 44.4421 39.0521C44.4421 37.6234 43.8746 36.2532 42.8643 35.243C41.8541 34.2327 40.4839 33.6652 39.0552 33.6652C37.6265 33.6652 36.2563 34.2327 35.2461 35.243C34.2358 36.2532 33.6683 37.6234 33.6683 39.0521C33.6683 40.4808 34.2358 41.851 35.2461 42.8612C36.2563 43.8715 37.6265 44.439 39.0552 44.439Z" fill="white"/>
</svg>
