<svg width="60" height="60" viewBox="0 0 60 60" fill="none" xmlns="http://www.w3.org/2000/svg">
<path d="M10.0107 7.62729C15.5034 2.70592 22.6219 -0.0106819 29.9968 3.15677e-05C35.4576 -0.00212147 40.8153 1.48681 45.4919 4.30619C50.1686 7.12557 53.9866 11.1684 56.5342 15.9985H29.9968C27.236 15.998 24.5366 16.8137 22.238 18.343C19.9394 19.8723 18.1442 22.047 17.0781 24.5936L10.0107 7.62729Z" fill="black"/>
<path d="M6.98039 10.759C3.84043 14.517 1.66789 18.9864 0.652344 23.7771C-0.363198 28.5678 -0.190877 33.5342 1.15427 38.243C2.49941 42.9518 4.9765 47.2599 8.36938 50.7912C11.7623 54.3226 15.9678 56.97 20.6191 58.5023L31.866 43.8717C28.4061 44.3385 24.8967 43.4959 22.0258 41.5093C19.155 39.5226 17.1299 36.5352 16.3475 33.1328C16.2696 33.0173 16.2039 32.8939 16.1515 32.7648L6.98039 10.759Z" fill="black"/>
<path d="M24.8574 59.5542C30.0191 60.4542 35.3265 59.9864 40.2513 58.1975C45.176 56.4087 49.5463 53.3611 52.9271 49.3581C56.3078 45.3552 58.5811 40.5365 59.5207 35.3819C60.4602 30.2272 60.0332 24.9164 58.2822 19.978C58.1868 19.9916 58.0905 19.9983 57.9942 19.998H39.796C41.1277 21.3002 42.1853 22.8558 42.9065 24.573C43.6278 26.2903 43.9981 28.1345 43.9956 29.9971C44.0054 33.5735 42.6408 37.0171 40.1839 39.6161L24.8574 59.5542Z" fill="black"/>
<path d="M19.998 29.9971C19.998 27.3452 21.0515 24.8019 22.9267 22.9267C24.8019 21.0515 27.3452 19.998 29.9971 19.998C32.649 19.998 35.1923 21.0515 37.0675 22.9267C38.9426 24.8019 39.9961 27.3452 39.9961 29.9971C39.9961 32.649 38.9426 35.1923 37.0675 37.0675C35.1923 38.9426 32.649 39.9961 29.9971 39.9961C27.3452 39.9961 24.8019 38.9426 22.9267 37.0675C21.0515 35.1923 19.998 32.649 19.998 29.9971Z" fill="black"/>
</svg>
