<svg width="60" height="60" viewBox="0 0 60 60" fill="none" xmlns="http://www.w3.org/2000/svg">
<path d="M53.3333 0H6.66667C3 0 0 3 0 6.66667V53.3333C0 57 3 60 6.66667 60H53.3333C57 60 60 57 60 53.3333V6.66667C60 3 57 0 53.3333 0ZM13.3333 13.3333H20V20H13.3333V13.3333ZM13.3333 26.6667H20V33.3333H13.3333V26.6667ZM13.3333 40H20V46.6667H13.3333V40ZM46.6667 46.6667H26.6667V40H46.6667V46.6667ZM46.6667 33.3333H26.6667V26.6667H46.6667V33.3333ZM46.6667 20H26.6667V13.3333H46.6667V20Z" fill="black"/>
</svg>
