<svg width="60" height="60" viewBox="0 0 60 60" fill="none" xmlns="http://www.w3.org/2000/svg">
<path d="M47.7 46.17C46.92 43.77 44.67 42 42 42H39V33C39 32.2044 38.6839 31.4413 38.1213 30.8787C37.5587 30.3161 36.7956 30 36 30H18V24H24C24.7956 24 25.5587 23.6839 26.1213 23.1213C26.6839 22.5587 27 21.7956 27 21V15H33C34.5913 15 36.1174 14.3679 37.2426 13.2426C38.3679 12.1174 39 10.5913 39 9V7.77C42.5894 9.21709 45.7747 11.5124 48.2833 14.4595C50.7918 17.4066 52.5489 20.9176 53.404 24.6921C54.2592 28.4666 54.187 32.3921 53.1936 36.1326C52.2002 39.8731 50.3152 43.3172 47.7 46.17ZM27 53.79C15.15 52.32 6 42.24 6 30C6 28.14 6.24 26.34 6.63 24.63L21 39V42C21 43.5913 21.6321 45.1174 22.7574 46.2426C23.8826 47.3679 25.4087 48 27 48M30 0C26.0603 0 22.1593 0.775973 18.5195 2.28361C14.8797 3.79126 11.5726 6.00104 8.7868 8.7868C3.16071 14.4129 0 22.0435 0 30C0 37.9565 3.16071 45.5871 8.7868 51.2132C11.5726 53.999 14.8797 56.2087 18.5195 57.7164C22.1593 59.224 26.0603 60 30 60C37.9565 60 45.5871 56.8393 51.2132 51.2132C56.8393 45.5871 60 37.9565 60 30C60 26.0603 59.224 22.1593 57.7164 18.5195C56.2087 14.8797 53.999 11.5726 51.2132 8.7868C48.4274 6.00104 45.1203 3.79126 41.4805 2.28361C37.8407 0.775973 33.9397 0 30 0Z" fill="white"/>
</svg>
