<svg width="100" height="60" viewBox="0 0 100 60" fill="none" xmlns="http://www.w3.org/2000/svg">
<path d="M39.3336 30.7572L34.9854 2.31901C44.7411 -0.779676 55.2173 -0.779676 64.9729 2.31901L60.6248 30.7572C60.2749 33.2061 58.1258 35.0054 55.6268 35.0054H44.2816C43.0848 35.007 41.9272 34.5791 41.0192 33.7995C40.1112 33.0199 39.5131 31.9404 39.3336 30.7572ZM99.9584 49.9992C99.9584 46.0508 97.6094 42.5023 93.9609 40.853C91.5556 29.2968 84.7433 19.1321 74.9688 12.5148L66.1724 36.7047C65.4727 38.7039 63.5735 40.0033 61.4744 40.0033H38.484C36.3849 40.0033 34.4856 38.7039 33.7859 36.7047L24.9896 12.5148C15.2277 19.1221 8.41718 29.2662 5.9975 40.803C2.34902 42.5023 0 46.0008 0 49.9992L32.2366 59.1953C34.0358 59.6951 35.8851 59.995 37.7343 59.995H62.1241C63.9734 59.995 65.8226 59.6951 67.6218 59.1953L99.9584 49.9992Z" fill="white"/>
</svg>
