<svg width="46" height="60" viewBox="0 0 46 60" fill="none" xmlns="http://www.w3.org/2000/svg">
<path d="M5.71429 60C4.14286 60 2.79809 59.4409 1.68 58.3229C0.561904 57.2048 0.00190476 55.859 0 54.2857V25.7143C0 24.1429 0.559999 22.7981 1.68 21.68C2.8 20.5619 4.14476 20.0019 5.71429 20H8.57143V14.2857C8.57143 10.3333 9.96476 6.96476 12.7514 4.18C15.5381 1.39524 18.9067 0.00190476 22.8571 0C26.8095 0 30.179 1.39333 32.9657 4.18C35.7524 6.96667 37.1448 10.3352 37.1429 14.2857V20H40C41.5714 20 42.9171 20.56 44.0371 21.68C45.1571 22.8 45.7162 24.1448 45.7143 25.7143V54.2857C45.7143 55.8571 45.1552 57.2029 44.0371 58.3229C42.919 59.4429 41.5733 60.0019 40 60H5.71429ZM22.8571 45.7143C24.4286 45.7143 25.7743 45.1552 26.8943 44.0371C28.0143 42.919 28.5733 41.5733 28.5714 40C28.5714 38.4286 28.0124 37.0838 26.8943 35.9657C25.7762 34.8476 24.4305 34.2876 22.8571 34.2857C21.2857 34.2857 19.941 34.8457 18.8229 35.9657C17.7048 37.0857 17.1448 38.4305 17.1429 40C17.1429 41.5714 17.7029 42.9171 18.8229 44.0371C19.9429 45.1571 21.2876 45.7162 22.8571 45.7143ZM14.2857 20H31.4286V14.2857C31.4286 11.9048 30.5952 9.88095 28.9286 8.21429C27.2619 6.54762 25.2381 5.71429 22.8571 5.71429C20.4762 5.71429 18.4524 6.54762 16.7857 8.21429C15.119 9.88095 14.2857 11.9048 14.2857 14.2857V20Z" fill="white"/>
</svg>
