<svg width="243" height="35" viewBox="0 0 243 35" fill="none" xmlns="http://www.w3.org/2000/svg">
<path fill-rule="evenodd" clip-rule="evenodd" d="M9.83233 18.529L23.3854 4.81C24.3062 3.87791 25.5314 3.36538 26.8374 3.36538C28.1424 3.36538 29.3676 3.87742 30.2875 4.80952L31.3434 5.87838L33.4558 3.74017L32.3998 2.6713C30.9164 1.16973 28.9411 0.342773 26.8364 0.342773C24.7327 0.34326 22.757 1.17022 21.2736 2.67228L7.72046 16.3908L9.83233 18.529Z" fill="white"/>
<path fill-rule="evenodd" clip-rule="evenodd" d="M27.9655 9.36739L25.8432 7.23234L12.2264 20.9311C10.3142 22.8547 7.20296 22.8552 5.29125 20.932C3.37907 19.0084 3.37907 15.878 5.29125 13.9544L17.0412 2.13456L14.9189 0L3.16939 11.8198C0.0870903 14.9206 0.0870903 19.9663 3.16939 23.0666C4.65982 24.5659 6.64447 25.3922 8.75812 25.3922C10.8723 25.3922 12.8579 24.5654 14.3483 23.0661L27.9655 9.36739Z" fill="white"/>
<path fill-rule="evenodd" clip-rule="evenodd" d="M41.4378 11.9325C39.9479 10.4332 37.9632 9.60742 35.8486 9.60742C33.7345 9.60791 31.7488 10.4337 30.2584 11.9335L16.6421 25.632L18.7635 27.7671L32.3807 14.0681C34.2934 12.1445 37.4042 12.1449 39.316 14.0676C40.2407 14.9979 40.7499 16.2363 40.7499 17.5558C40.7499 18.8758 40.2407 20.1147 39.316 21.0449L27.5664 32.865L29.6888 34.9996L41.4378 23.18C44.5206 20.0792 44.5206 15.0334 41.4378 11.9325Z" fill="white"/>
<path fill-rule="evenodd" clip-rule="evenodd" d="M34.7756 16.4707L21.2227 30.1897C19.3191 32.1157 16.223 32.1167 14.3203 30.1902L13.2644 29.1214L11.1521 31.2596L12.208 32.3284C13.6914 33.83 15.6667 34.657 17.7718 34.657C19.8754 34.6565 21.8507 33.8295 23.3346 32.3275L36.8874 18.6089L34.7756 16.4707Z" fill="white"/>
<path fill-rule="evenodd" clip-rule="evenodd" d="M56.2658 21.0718C56.4406 21.9472 56.8503 22.6325 57.4939 23.1263C58.137 23.6211 58.9832 23.868 60.0326 23.868C61.0653 23.868 61.8635 23.625 62.4278 23.1385C62.9922 22.6526 63.2741 22.0123 63.2741 21.2178C63.2741 20.8288 63.1987 20.5006 63.0479 20.2332C62.8966 19.9657 62.6862 19.7389 62.4163 19.5522C62.1454 19.3666 61.8121 19.2079 61.4149 19.0785C61.0177 18.9487 60.5725 18.8111 60.0797 18.6651L58.793 18.3006C58.0299 18.09 57.3464 17.8348 56.7427 17.5345C56.1385 17.2347 55.6222 16.882 55.1933 16.4769C54.7644 16.0717 54.4383 15.6059 54.2159 15.0788C53.9936 14.5522 53.8821 13.9398 53.8821 13.2433C53.8821 12.5138 54.0253 11.8413 54.3115 11.225C54.5973 10.6097 55.0026 10.0821 55.5271 9.6447C56.0516 9.20725 56.687 8.86287 57.4343 8.61108C58.1807 8.36076 59.0226 8.23486 59.9606 8.23486C61.7247 8.23486 63.1228 8.66007 64.1564 9.51096C65.189 10.3624 65.7927 11.5008 65.968 12.9273L63.1074 13.1703C62.9321 12.4409 62.583 11.8736 62.0585 11.4685C61.534 11.0633 60.803 10.8605 59.8655 10.8605C58.9914 10.8605 58.308 11.0673 57.8157 11.4807C57.3224 11.8942 57.076 12.4252 57.076 13.0733C57.076 13.4461 57.1481 13.7576 57.2912 14.0089C57.4343 14.2607 57.6404 14.4792 57.9108 14.6653C58.1807 14.852 58.5106 15.018 58.8997 15.1635C59.2892 15.3095 59.7301 15.4643 60.2228 15.626L61.4389 16.0149C62.2011 16.2579 62.8889 16.5131 63.5003 16.7806C64.1122 17.048 64.6328 17.3684 65.0617 17.7412C65.4911 18.114 65.821 18.5598 66.0511 19.0785C66.2816 19.5973 66.3969 20.2376 66.3969 20.9993C66.3969 21.81 66.2379 22.5517 65.9204 23.2238C65.602 23.8969 65.1578 24.468 64.5853 24.9378C64.0132 25.4081 63.3341 25.773 62.5469 26.0317C61.7602 26.2908 60.8904 26.4211 59.9371 26.4211C58.173 26.4211 56.7028 25.9999 55.5271 25.1568C54.3509 24.3137 53.6281 23.0416 53.3577 21.3393L56.2658 21.0718Z" fill="white"/>
<path fill-rule="evenodd" clip-rule="evenodd" d="M78.702 11.1917C77.8446 11.1917 77.0778 11.3531 76.4028 11.6749C75.7273 11.9972 75.1554 12.4439 74.6873 13.0154C74.2183 13.5873 73.8606 14.2641 73.6143 15.0443C73.3685 15.8259 73.2456 16.6754 73.2456 17.593C73.2456 18.5112 73.3723 19.3645 73.6268 20.154C73.8803 20.9429 74.2423 21.627 74.7109 22.2073C75.179 22.7866 75.7513 23.2415 76.4268 23.5721C77.1013 23.9017 77.8681 24.0665 78.7261 24.0665C79.584 24.0665 80.3503 23.91 81.0258 23.596C81.7004 23.282 82.2727 22.8431 82.7412 22.279C83.2098 21.7158 83.5714 21.0351 83.8253 20.2383C84.0793 19.4411 84.2066 18.5673 84.2066 17.6174C84.2066 16.6832 84.0793 15.8216 83.8253 15.0326C83.5714 14.2441 83.2098 13.5673 82.7412 13.0037C82.2727 12.4405 81.6965 11.9972 81.0133 11.6749C80.3306 11.3531 79.56 11.1917 78.702 11.1917ZM78.7261 8.57812C80.0128 8.57812 81.1886 8.79999 82.253 9.24371C83.3169 9.68743 84.2224 10.3082 84.9695 11.1069C85.7155 11.9061 86.295 12.8618 86.7089 13.975C87.1218 15.0882 87.3282 16.3062 87.3282 17.6291C87.3282 19.0012 87.1098 20.2393 86.6734 21.3442C86.2355 22.4496 85.6128 23.4053 84.8024 24.2118L87.0901 26.9468V27.7938H84.183L82.5862 25.8097C82.0302 26.0677 81.4339 26.2691 80.7992 26.4144C80.1635 26.5597 79.4803 26.6323 78.7501 26.6323C77.4312 26.6323 76.2439 26.41 75.1876 25.9667C74.1309 25.523 73.2331 24.9018 72.4947 24.1031C71.7558 23.3044 71.1839 22.3531 70.7792 21.2472C70.374 20.1423 70.1714 18.9364 70.1714 17.6291C70.1714 16.3062 70.374 15.0926 70.7792 13.9867C71.1839 12.8822 71.7596 11.9299 72.5067 11.1312C73.2528 10.3325 74.1544 9.70743 75.2111 9.25541C76.2679 8.80438 77.4393 8.57812 78.7261 8.57812Z" fill="white"/>
<path fill-rule="evenodd" clip-rule="evenodd" d="M98.9953 23.9174C100.214 23.9174 101.164 23.5329 101.845 22.7629C102.525 21.9929 102.866 20.814 102.866 19.2255V8.57812H105.858V19.2985C105.858 20.5627 105.7 21.6442 105.383 22.544C105.066 23.4432 104.615 24.1809 104.029 24.7564C103.444 25.3319 102.723 25.7532 101.869 26.0206C101.014 26.288 100.056 26.4213 98.9953 26.4213C97.9183 26.4213 96.9567 26.288 96.1103 26.0206C95.263 25.7532 94.5468 25.3319 93.9612 24.7564C93.3756 24.1809 92.9244 23.4432 92.6072 22.544C92.2905 21.6442 92.1326 20.5627 92.1326 19.2985V8.57812H95.1247V19.2255C95.1247 20.814 95.4649 21.9929 96.1457 22.7629C96.8265 23.5329 97.7762 23.9174 98.9953 23.9174Z" fill="white"/>
<path fill-rule="evenodd" clip-rule="evenodd" d="M114.43 18.5994H120.155L119.213 15.8754C118.842 14.8085 118.545 13.94 118.319 13.2713C118.093 12.6021 117.892 12.0128 117.715 11.5029H116.967C116.87 11.7735 116.773 12.0445 116.677 12.3151C116.58 12.5862 116.471 12.889 116.35 13.2231C116.229 13.5577 116.097 13.94 115.952 14.3704C115.807 14.7999 115.63 15.302 115.42 15.8754L114.43 18.5994ZM108.946 25.2425L115.106 8.92188H119.672L125.76 25.2425V26.0787H122.764L121.025 21.18H113.512L111.773 26.0787H108.946V25.2425Z" fill="white"/>
<path fill-rule="evenodd" clip-rule="evenodd" d="M132.501 16.7596H135.109C136.258 16.7596 137.163 16.5501 137.824 16.1322C138.486 15.7138 138.818 15.0311 138.818 14.0831C138.818 13.1202 138.482 12.4495 137.812 12.0706C137.143 11.6922 136.242 11.5025 135.109 11.5025H132.501V16.7596ZM142.574 26.0787H139.678L134.439 19.3402H132.501V26.0787H129.534V8.92188H135.109C135.986 8.92188 136.82 8.98158 137.609 9.10098C138.399 9.22038 139.112 9.49529 139.751 9.92524C141.106 10.8169 141.785 12.1631 141.785 13.9623C141.785 14.7432 141.669 15.424 141.437 16.0056C141.206 16.5867 140.898 17.0802 140.516 17.4866C140.133 17.8929 139.69 18.2232 139.189 18.4774C138.686 18.7326 138.163 18.9237 137.621 19.0508L142.574 25.242V26.0787Z" fill="white"/>
<path fill-rule="evenodd" clip-rule="evenodd" d="M146.348 8.92188H157.504V11.5501H149.299V16.0425H156.928V18.623H149.299V23.45H157.672V26.0787H146.348V8.92188Z" fill="white"/>
<path fill-rule="evenodd" clip-rule="evenodd" d="M164.354 21.0718C164.529 21.9472 164.938 22.6325 165.582 23.1263C166.225 23.6211 167.072 23.868 168.121 23.868C169.153 23.868 169.951 23.625 170.516 23.1385C171.08 22.6526 171.362 22.0123 171.362 21.2178C171.362 20.8288 171.287 20.5006 171.136 20.2332C170.985 19.9657 170.774 19.7389 170.504 19.5522C170.234 19.3666 169.9 19.2079 169.503 19.0785C169.106 18.9487 168.66 18.8111 168.168 18.6651L166.881 18.3006C166.118 18.09 165.434 17.8348 164.831 17.5345C164.227 17.2347 163.71 16.882 163.282 16.4769C162.853 16.0717 162.526 15.6059 162.304 15.0788C162.082 14.5522 161.97 13.9398 161.97 13.2433C161.97 12.5138 162.113 11.8413 162.4 11.225C162.685 10.6097 163.091 10.0821 163.615 9.6447C164.14 9.20725 164.775 8.86287 165.522 8.61108C166.269 8.36076 167.111 8.23486 168.048 8.23486C169.813 8.23486 171.211 8.66007 172.244 9.51096C173.277 10.3624 173.881 11.5008 174.056 12.9273L171.195 13.1703C171.02 12.4409 170.671 11.8736 170.147 11.4685C169.622 11.0633 168.891 10.8605 167.953 10.8605C167.079 10.8605 166.396 11.0673 165.904 11.4807C165.411 11.8942 165.164 12.4252 165.164 13.0733C165.164 13.4461 165.236 13.7576 165.379 14.0089C165.522 14.2607 165.728 14.4792 165.999 14.6653C166.269 14.852 166.599 15.018 166.988 15.1635C167.378 15.3095 167.818 15.4643 168.311 15.626L169.527 16.0149C170.289 16.2579 170.977 16.5131 171.589 16.7806C172.2 17.048 172.721 17.3684 173.149 17.7412C173.579 18.114 173.909 18.5598 174.139 19.0785C174.369 19.5973 174.485 20.2376 174.485 20.9993C174.485 21.81 174.326 22.5517 174.008 23.2238C173.69 23.8969 173.245 24.468 172.673 24.9378C172.101 25.4081 171.422 25.773 170.635 26.0317C169.848 26.2908 168.978 26.4211 168.025 26.4211C166.261 26.4211 164.791 25.9999 163.615 25.1568C162.439 24.3137 161.716 23.0416 161.446 21.3393L164.354 21.0718Z" fill="white"/>
<path fill-rule="evenodd" clip-rule="evenodd" d="M181.986 16.9028H184.905C185.44 16.9028 185.93 16.8595 186.376 16.7724C186.822 16.6857 187.211 16.5398 187.544 16.3342C187.876 16.1291 188.136 15.8528 188.322 15.5052C188.509 15.1581 188.602 14.7315 188.602 14.226C188.602 13.7051 188.509 13.2674 188.322 12.9121C188.136 12.5568 187.88 12.2766 187.556 12.071C187.231 11.8654 186.846 11.7196 186.401 11.6329C185.954 11.5462 185.472 11.5024 184.954 11.5024H181.986V16.9028ZM178.946 8.92188H185.318C186.502 8.92188 187.495 9.05716 188.298 9.32822C189.101 9.59879 189.749 9.97287 190.244 10.4514C190.738 10.929 191.095 11.4904 191.314 12.136C191.532 12.7807 191.642 13.4778 191.642 14.2265C191.642 15.1191 191.492 15.8952 191.192 16.5562C190.892 17.2172 190.458 17.7627 189.891 18.1931C189.323 18.623 188.634 18.9456 187.823 19.1608C187.012 19.376 186.097 19.4834 185.075 19.4834H181.986V26.0787H178.946V8.92188Z" fill="white"/>
<path fill-rule="evenodd" clip-rule="evenodd" d="M197.813 18.5994H203.538L202.596 15.8754C202.225 14.8085 201.927 13.94 201.702 13.2713C201.476 12.6021 201.275 12.0128 201.098 11.5029H200.349C200.253 11.7735 200.156 12.0445 200.059 12.3151C199.963 12.5862 199.854 12.889 199.733 13.2231C199.612 13.5577 199.48 13.94 199.335 14.3704C199.19 14.7999 199.012 15.302 198.803 15.8754L197.813 18.5994ZM192.329 25.2425L198.489 8.92188H203.055L209.142 25.2425V26.0787H206.147L204.408 21.18H196.895L195.155 26.0787H192.329V25.2425Z" fill="white"/>
<path fill-rule="evenodd" clip-rule="evenodd" d="M227.328 21.5419C227.056 22.2118 226.698 22.8421 226.257 23.4334C225.815 24.0247 225.282 24.5428 224.656 24.9852C224.031 25.4276 223.304 25.7774 222.478 26.0348C221.651 26.2921 220.733 26.4213 219.722 26.4213C218.438 26.4213 217.27 26.1977 216.219 25.7509C215.168 25.3052 214.271 24.6869 213.528 23.898C212.785 23.1081 212.211 22.1679 211.807 21.0755C211.402 19.9834 211.201 18.7994 211.201 17.5233C211.201 16.2482 211.402 15.0641 211.807 13.9716C212.211 12.8796 212.789 11.9346 213.54 11.1371C214.291 10.3405 215.193 9.71398 216.244 9.26003C217.295 8.8051 218.47 8.57812 219.77 8.57812C221.663 8.57812 223.248 9.01714 224.524 9.89373C225.8 10.7703 226.703 11.9346 227.232 13.3856L224.175 13.9832C223.758 13.1066 223.176 12.4165 222.43 11.9144C221.683 11.4122 220.781 11.1612 219.722 11.1612C218.871 11.1612 218.113 11.324 217.447 11.6498C216.781 11.9756 216.219 12.4242 215.762 12.9963C215.305 13.5678 214.955 14.243 214.715 15.0217C214.474 15.8 214.354 16.6337 214.354 17.5233C214.354 18.4288 214.478 19.2669 214.727 20.0374C214.975 20.8085 215.337 21.475 215.81 22.0393C216.283 22.6031 216.857 23.0436 217.531 23.3611C218.205 23.6792 218.976 23.8382 219.842 23.8382C220.966 23.8382 221.892 23.5669 222.622 23.0248C223.353 22.4826 223.918 21.821 224.319 21.0393L227.328 21.5419Z" fill="white"/>
<mask id="mask0_113_1046" style="mask-type:luminance" maskUnits="userSpaceOnUse" x="231" y="8" width="12" height="19">
<path d="M231.254 8.71484H242.642V26.0379H231.254V8.71484Z" fill="white"/>
</mask>
<g mask="url(#mask0_113_1046)">
<path fill-rule="evenodd" clip-rule="evenodd" d="M231.254 8.71484H242.473V11.3685H234.222V15.9044H241.894V18.51H234.222V23.3837H242.642V26.0379H231.254V8.71484Z" fill="white"/>
</g>
</svg>
