<svg width="54" height="60" viewBox="0 0 54 60" fill="none" xmlns="http://www.w3.org/2000/svg">
<path d="M26.6667 50C28.1111 50 29.3056 49.5278 30.25 48.5833C31.1944 47.6389 31.6667 46.4444 31.6667 45C31.6667 43.5556 31.1944 42.3611 30.25 41.4167C29.3056 40.4722 28.1111 40 26.6667 40C25.2222 40 24.0278 40.4722 23.0833 41.4167C22.1389 42.3611 21.6667 43.5556 21.6667 45C21.6667 46.4444 22.1389 47.6389 23.0833 48.5833C24.0278 49.5278 25.2222 50 26.6667 50ZM26.6667 35C28.1111 35 29.3056 34.5278 30.25 33.5833C31.1944 32.6389 31.6667 31.4444 31.6667 30C31.6667 28.5556 31.1944 27.3611 30.25 26.4167C29.3056 25.4722 28.1111 25 26.6667 25C25.2222 25 24.0278 25.4722 23.0833 26.4167C22.1389 27.3611 21.6667 28.5556 21.6667 30C21.6667 31.4444 22.1389 32.6389 23.0833 33.5833C24.0278 34.5278 25.2222 35 26.6667 35ZM26.6667 20C28.1111 20 29.3056 19.5278 30.25 18.5833C31.1944 17.6389 31.6667 16.4444 31.6667 15C31.6667 13.5556 31.1944 12.3611 30.25 11.4167C29.3056 10.4722 28.1111 10 26.6667 10C25.2222 10 24.0278 10.4722 23.0833 11.4167C22.1389 12.3611 21.6667 13.5556 21.6667 15C21.6667 16.4444 22.1389 17.6389 23.0833 18.5833C24.0278 19.5278 25.2222 20 26.6667 20ZM10 40V36.1667C7.16667 35.3889 4.79222 33.8333 2.87667 31.5C0.961111 29.1667 0.00222222 26.4444 0 23.3333H10V19.5C7.16667 18.7222 4.79222 17.1667 2.87667 14.8333C0.961111 12.5 0.00222222 9.77778 0 6.66667H10C10 4.83333 10.6533 3.26444 11.96 1.96C13.2667 0.655556 14.8356 0.00222222 16.6667 0H36.6667C38.5 0 40.07 0.653334 41.3767 1.96C42.6833 3.26667 43.3356 4.83556 43.3333 6.66667H53.3333C53.3333 9.77778 52.3756 12.5 50.46 14.8333C48.5444 17.1667 46.1689 18.7222 43.3333 19.5V23.3333H53.3333C53.3333 26.4444 52.3756 29.1667 50.46 31.5C48.5444 33.8333 46.1689 35.3889 43.3333 36.1667V40H53.3333C53.3333 43.1111 52.3756 45.8333 50.46 48.1667C48.5444 50.5 46.1689 52.0556 43.3333 52.8333V53.3333C43.3333 55.1667 42.6811 56.7367 41.3767 58.0433C40.0722 59.35 38.5022 60.0022 36.6667 60H16.6667C14.8333 60 13.2644 59.3478 11.96 58.0433C10.6556 56.7389 10.0022 55.1689 10 53.3333V52.8333C7.16667 52.0556 4.79222 50.5 2.87667 48.1667C0.961111 45.8333 0.00222222 43.1111 0 40H10Z" fill="white"/>
</svg>
