<svg width="140" height="57" viewBox="0 0 140 57" fill="none" xmlns="http://www.w3.org/2000/svg">
<path d="M0 0.102454C0 0.102454 5.54951 -0.609185 9.24918 2.72269C11.5328 4.77828 12.1984 8.05415 12.1984 8.05415L19.7538 37.9594L26.0377 13.4836C26.6482 10.882 27.7521 7.6645 29.4964 5.48992C31.7226 2.72036 36.2416 2.54536 36.7236 2.54536C37.2056 2.54536 41.7223 2.72036 43.9462 5.48992C45.6905 7.6645 46.7944 10.8797 47.4072 13.4836L53.6911 37.9594L61.2443 8.05415C61.2443 8.05415 61.9121 4.77828 64.1957 2.72269C67.8954 -0.609185 73.4426 0.102454 73.4426 0.102454L58.9744 55.9907C58.9744 55.9907 54.2029 56.343 51.8138 55.0994C48.6764 53.4661 47.1869 52.2062 45.2866 44.5998C44.3261 40.7094 43.3775 36.8159 42.4407 32.9196L42.0849 31.4519C41.082 27.2941 40.0813 23.1526 39.3767 20.271L39.0325 18.8711C38.7157 17.6018 38.4977 16.7478 38.4197 16.4912C38.2062 15.7889 37.9515 14.1159 36.7213 14.1159C35.5187 14.1159 35.241 15.7912 35.023 16.4912C34.9426 16.7478 34.7246 17.5995 34.4102 18.8711L34.0659 20.271C33.3331 23.2654 32.6063 26.2613 31.8856 29.2587L31.5321 30.7193C30.4207 35.3502 29.2961 39.9778 28.1584 44.6021C26.258 52.2062 24.7662 53.4684 21.6289 55.0994C19.2397 56.343 14.4682 55.9907 14.4682 55.9907L0 0.102454ZM87.2085 9.37244V11.3907H87.2131V45.1271C87.1879 52.0498 86.5292 53.5874 83.6649 55.181C81.4387 56.42 78.0328 55.951 78.0328 55.951V18.1594C78.0328 16.2625 78.6111 15.0189 80.7433 13.9036C82.017 13.2363 83.2036 12.7253 84.4384 11.9693C86.1252 10.9427 86.9813 9.72243 87.1695 9.4331L87.2085 9.37244ZM91.8033 0.289114C91.8033 0.289114 99.2784 -1.05717 102.98 2.5057C105.062 4.50995 107.364 7.92583 107.885 8.71446L107.984 8.86379L107.995 8.88246L114.513 18.8128C114.828 19.3284 115.241 19.8907 115.902 19.8907C116.56 19.8907 116.976 19.3307 117.292 18.8128L123.808 8.88246L123.82 8.86379L123.918 8.71446C124.439 7.92583 126.741 4.50995 128.825 2.50336C132.525 -1.05717 140 0.286781 140 0.286781L122.289 28.1364L139.952 55.895C139.952 55.895 132.305 56.9356 128.603 53.3728C126.234 51.0955 123.808 47.388 123.808 47.388L117.29 37.46C116.976 36.9421 116.56 36.3798 115.902 36.3798C115.241 36.3798 114.828 36.9397 114.511 37.46L107.995 47.388C107.995 47.388 105.702 51.0955 103.336 53.3728C99.6341 56.9356 91.8492 55.895 91.8492 55.895L109.512 28.1364L91.8033 0.289114ZM87.1902 0.0394568H87.2131C87.2131 3.74932 86.8689 5.95423 84.6656 7.66684C83.6428 8.46598 82.5149 9.1155 81.3148 9.59643C80.0978 10.0791 78.9836 10.7952 78.0328 11.7057C78.0328 4.94861 79.0036 2.50103 81.6131 1.05209C83.2357 0.151453 85.9003 0.0487897 86.8574 0.0394568H87.1902Z" fill="white"/>
</svg>
