<svg width="26" height="26" viewBox="0 0 26 26" fill="none" xmlns="http://www.w3.org/2000/svg">
<path d="M13.0002 0C5.83162 0 0 5.83135 0 12.9994C0 20.1681 5.83189 25.9999 13 25.9999C20.1678 25.9999 25.9991 20.1681 25.9991 12.9994C25.9994 5.83162 20.1681 0 13.0002 0ZM1.31188 12.9994C1.31188 11.3053 1.67525 9.69622 2.32389 8.24304L7.8994 23.5188C4.00076 21.6239 1.31188 17.6259 1.31188 12.9994ZM13.0002 24.6883C11.8529 24.6883 10.7455 24.52 9.69838 24.212L13.205 14.022L16.7984 23.8646C16.8216 23.9227 16.85 23.9757 16.8816 24.0256C15.6667 24.453 14.3613 24.6883 13.0002 24.6883ZM14.6106 7.51956C15.3141 7.48255 15.9487 7.40825 15.9487 7.40825C16.5782 7.33369 16.5045 6.4084 15.8739 6.44541C15.8739 6.44541 13.9809 6.59373 12.7585 6.59373C11.6103 6.59373 9.67974 6.44541 9.67974 6.44541C9.04973 6.4084 8.97625 7.37124 9.60598 7.40825C9.60598 7.40825 10.2025 7.48255 10.8317 7.51956L12.6525 12.5091L10.0947 20.1802L5.83918 7.51983C6.54375 7.48309 7.177 7.40852 7.177 7.40852C7.80647 7.33423 7.73217 6.4084 7.1019 6.44622C7.1019 6.44622 5.20971 6.59454 3.98698 6.59454C3.76734 6.59454 3.5088 6.58887 3.23486 6.58049C5.32426 3.40695 8.91708 1.31188 13.0002 1.31188C16.0436 1.31188 18.8138 2.47518 20.8929 4.38006C20.8424 4.37736 20.7935 4.3706 20.7411 4.3706C19.5934 4.3706 18.7786 5.37073 18.7786 6.44514C18.7786 7.40798 19.3338 8.22332 19.9263 9.18616C20.3712 9.96475 20.8899 10.9651 20.8899 12.4097C20.8899 13.4103 20.5058 14.5709 20.0003 16.1881L18.8346 20.084L14.6106 7.51956ZM18.8759 23.1028L22.446 12.7806C23.1136 11.1135 23.3348 9.78024 23.3348 8.59397C23.3348 8.16415 23.3067 7.76459 23.256 7.39204C24.1691 9.05702 24.6886 10.9678 24.6881 13C24.6878 17.3117 22.3504 21.0766 18.8759 23.1028Z" fill="#F3F3F3"/>
</svg>
