<svg width="258" height="59" viewBox="0 0 258 59" fill="none" xmlns="http://www.w3.org/2000/svg">
<path d="M149.385 23.0032H139.246V24.0788C142.417 24.0788 142.927 24.7585 142.927 28.7804V36.031C142.927 40.0524 142.418 40.7889 139.246 40.7889C136.811 40.4493 135.168 39.1461 132.902 36.6539L130.297 33.8221C133.808 33.1982 135.677 30.9898 135.677 28.4971C135.677 25.3824 133.016 23.0032 128.031 23.0032H118.062V24.0788C121.233 24.0788 121.743 24.7585 121.743 28.7804V36.031C121.743 40.0524 121.233 40.7889 118.062 40.7889V41.8649H129.333V40.7889C126.162 40.7889 125.652 40.0524 125.652 36.031V33.9924H126.614L132.902 41.8649H149.385C157.485 41.8649 160.997 37.5607 160.997 32.4055C160.997 27.2512 157.485 23.0032 149.385 23.0032ZM125.652 32.2352V24.7027H127.974C130.523 24.7027 131.656 26.4585 131.656 28.4976C131.656 30.4804 130.523 32.2357 127.974 32.2357L125.652 32.2352ZM149.555 40.1092H149.158C147.12 40.1092 146.836 39.5998 146.836 36.994V24.7027H149.555C155.446 24.7027 156.522 29.007 156.522 32.3492C156.522 35.8039 155.445 40.1092 149.555 40.1092ZM86.5133 34.332L90.4217 22.7762C91.555 19.4345 91.0451 18.4719 87.42 18.4719V17.3386H98.0686V18.4719C94.5003 18.4719 93.6508 19.3214 92.2347 23.4564L85.7768 42.828H85.0408L79.2627 25.0986L73.3725 42.828H72.636L66.3489 23.4564C64.9896 19.3214 64.0833 18.4719 60.7979 18.4719V17.3386H73.3725V18.4719C70.0303 18.4719 69.1235 19.2647 70.3136 22.7762L74.1085 34.332L79.8294 17.3386H80.9059L86.5133 34.332ZM105.771 42.6009C99.5406 42.6009 94.4426 38.0133 94.4426 32.405C94.4426 26.8544 99.541 22.2658 105.771 22.2658C112.002 22.2658 117.099 26.8544 117.099 32.405C117.099 38.0133 112.002 42.6009 105.771 42.6009ZM105.771 24.023C100.56 24.023 98.7473 28.7237 98.7473 32.4055C98.7473 36.1445 100.56 40.7889 105.771 40.7889C111.039 40.7889 112.852 36.1445 112.852 32.4055C112.852 28.7237 111.039 24.023 105.771 24.023Z" fill="white"/>
<path d="M174.987 40.7321V41.8649H162.016V40.7321C165.811 40.7321 166.491 39.7696 166.491 34.1045V25.0423C166.491 19.3772 165.811 18.4714 162.016 18.4714V17.3381H173.74C179.574 17.3381 182.804 20.3402 182.804 24.3626C182.804 28.271 179.574 31.3294 173.74 31.3294H170.512V34.104C170.512 39.7696 171.191 40.7321 174.987 40.7321ZM173.74 19.3772H170.512V29.2335H173.74C176.913 29.2335 178.385 27.0246 178.385 24.3626C178.385 21.6438 176.913 19.3772 173.74 19.3772ZM221.716 36.5409L221.433 37.5602C220.923 39.4295 220.299 40.1092 216.278 40.1092H215.485C212.54 40.1092 212.03 39.4295 212.03 35.408V32.8028C216.448 32.8028 216.788 33.1987 216.788 36.1445H217.864V27.7043H216.788C216.788 30.6497 216.448 31.0461 212.03 31.0461V24.7027H215.145C219.167 24.7027 219.789 25.3824 220.299 27.2517L220.583 28.3273H221.489L221.093 23.0032H204.44V24.0788C207.611 24.0788 208.121 24.7585 208.121 28.7804V36.031C208.121 39.7099 207.688 40.6367 205.188 40.7688C202.811 40.4058 201.179 39.1094 198.946 36.6539L196.341 33.8221C199.853 33.1982 201.722 30.9898 201.722 28.4971C201.722 25.3824 199.06 23.0032 194.075 23.0032H184.106V24.0788C187.278 24.0788 187.788 24.7585 187.788 28.7804V36.031C187.788 40.0524 187.278 40.7889 184.106 40.7889V41.8649H195.378V40.7889C192.207 40.7889 191.697 40.0524 191.697 36.031V33.9924H192.66L198.947 41.8649H222.226L222.566 36.5414L221.716 36.5409ZM191.696 32.2352V24.7027H194.018C196.567 24.7027 197.7 26.4585 197.7 28.4976C197.7 30.4804 196.567 32.2357 194.018 32.2357L191.696 32.2352ZM233.214 42.6009C230.948 42.6009 228.965 41.4118 228.116 40.6749C227.833 40.9587 227.323 41.8082 227.21 42.6009H226.134V34.7851H227.266C227.72 38.5232 230.325 40.7321 233.667 40.7321C235.48 40.7321 236.953 39.7128 236.953 38.0138C236.953 36.5413 235.65 35.408 233.327 34.332L230.099 32.8028C227.833 31.7258 226.134 29.8565 226.134 27.3647C226.134 24.6459 228.683 22.324 232.195 22.324C234.064 22.324 235.649 23.0037 236.613 23.7964C236.896 23.5699 237.179 22.9465 237.349 22.2663H238.425V28.9507H237.236C236.839 26.2882 235.367 24.0793 232.365 24.0793C230.779 24.0793 229.306 24.9856 229.306 26.4022C229.306 27.8746 230.495 28.6674 233.214 29.9137L236.329 31.4429C239.048 32.7455 240.124 34.8423 240.124 36.5414C240.124 40.1092 237.009 42.6009 233.214 42.6009ZM250.659 42.6009C248.393 42.6009 246.411 41.4118 245.562 40.6749C245.278 40.9587 244.769 41.8082 244.656 42.6009H243.579V34.7851H244.712C245.165 38.5232 247.77 40.7321 251.113 40.7321C252.925 40.7321 254.398 39.7128 254.398 38.0138C254.398 36.5413 253.095 35.408 250.773 34.332L247.544 32.8028C245.278 31.7258 243.579 29.8565 243.579 27.3647C243.579 24.6459 246.128 22.324 249.64 22.324C251.509 22.324 253.094 23.0037 254.058 23.7964C254.341 23.5699 254.624 22.9465 254.793 22.2663H255.87V28.9507H254.681C254.284 26.2882 252.812 24.0793 249.81 24.0793C248.224 24.0793 246.751 24.9856 246.751 26.4022C246.751 27.8746 247.94 28.6674 250.659 29.9137L253.774 31.4429C256.493 32.7455 257.569 34.8423 257.569 36.5414C257.569 40.1092 254.454 42.6009 250.659 42.6009Z" fill="white"/>
<path d="M4.1543 29.2198C4.1543 39.142 9.92052 47.7166 18.282 51.78L6.32456 19.0182C4.89114 22.2281 4.15159 25.7044 4.1543 29.2198ZM46.1438 27.9549C46.1438 24.8569 45.031 22.7114 44.0766 21.0415C42.8059 18.9767 41.6149 17.2281 41.6149 15.1632C41.6149 12.8589 43.3625 10.7139 45.8242 10.7139C45.9354 10.7139 46.0408 10.7278 46.1491 10.734C41.6893 6.64817 35.7476 4.15356 29.2215 4.15356C20.4642 4.15356 12.7595 8.64672 8.27732 15.4523C8.86544 15.4699 9.41969 15.4823 9.89047 15.4823C12.5124 15.4823 16.571 15.1642 16.571 15.1642C17.9223 15.0845 18.0816 17.0692 16.7318 17.229C16.7318 17.229 15.3738 17.3888 13.8628 17.468L22.9912 44.6201L28.4769 28.1676L24.5714 17.467C23.2216 17.3879 21.9428 17.2281 21.9428 17.2281C20.592 17.1489 20.7503 15.0836 22.1012 15.1632C22.1012 15.1632 26.2409 15.4814 28.704 15.4814C31.3255 15.4814 35.3846 15.1632 35.3846 15.1632C36.7368 15.0836 36.8956 17.0683 35.5453 17.2281C35.5453 17.2281 34.1845 17.3879 32.6763 17.467L41.7351 44.4135L44.2354 36.0583C45.3191 32.5911 46.1438 30.1008 46.1438 27.9549Z" fill="white"/>
<path d="M29.6607 31.4126L22.1396 53.2674C24.4391 53.9446 26.8238 54.2885 29.2209 54.2886C32.14 54.2886 34.9394 53.7839 37.5451 52.8676C37.4756 52.758 37.4159 52.6425 37.3668 52.5223L29.6607 31.4126ZM51.2164 17.1934C51.3241 17.9918 51.3852 18.849 51.3852 19.771C51.3852 22.3147 50.9101 25.1742 49.4792 28.7496L41.8222 50.8877C49.2746 46.5419 54.2872 38.4681 54.2872 29.2204C54.2876 24.8622 53.1744 20.764 51.2164 17.1934Z" fill="white"/>
<path d="M29.2208 0C13.1088 0 0 13.1079 0 29.2198C0 45.3336 13.1088 58.441 29.2208 58.441C45.3322 58.441 58.4429 45.3336 58.4429 29.2198C58.4425 13.1079 45.3322 0 29.2208 0ZM29.2208 57.1017C13.8477 57.1017 1.33984 44.5938 1.33984 29.2198C1.33984 13.8467 13.8472 1.33984 29.2208 1.33984C44.5933 1.33984 57.1002 13.8467 57.1002 29.2198C57.1002 44.5938 44.5933 57.1017 29.2208 57.1017Z" fill="white"/>
</svg>
